<?xml version="1.0" encoding="utf-8"?>
<!-- Generator: Adobe Illustrator 19.0.0, SVG Export Plug-In . SVG Version: 6.00 Build 0)  -->
<svg version="1.1" id="Ñëîé_1" xmlns="http://www.w3.org/2000/svg" xmlns:xlink="http://www.w3.org/1999/xlink" x="0px" y="0px"
	 viewBox="0 0 450 450" enable-background="new 0 0 450 450" xml:space="preserve">
<g>
	<g>
		<radialGradient id="SVGID_1_" cx="191.6907" cy="114.4852" r="97.0688" gradientUnits="userSpaceOnUse">
			<stop  offset="0.7343" style="stop-color:#FCEE21"/>
			<stop  offset="1" style="stop-color:#FFFFFF"/>
		</radialGradient>
		<circle opacity="0.3" fill="url(#SVGID_1_)" cx="191.69" cy="114.49" r="97.07"/>
		<radialGradient id="SVGID_2_" cx="191.6907" cy="113.5964" r="60.6651" gradientUnits="userSpaceOnUse">
			<stop  offset="0.5411" style="stop-color:#FCEE21"/>
			<stop  offset="0.9758" style="stop-color:#FFFFFF"/>
		</radialGradient>
		<circle opacity="0.3" fill="url(#SVGID_2_)" cx="191.69" cy="113.6" r="60.67"/>
		<path fill="#9FE054" d="M388.4,227.09H68.32c-5.8,0-10.5-4.7-10.5-10.5v-22c0-4.84,3.92-8.76,8.76-8.76h323.56
			c4.84,0,8.76,3.92,8.76,8.76v22C398.9,222.39,394.2,227.09,388.4,227.09z"/>
		<g>
			<path fill="#FFC289" d="M150.14,213.82h-3.99c0.13,0.68,0.53,1.24,1.08,1.55v0.9c0,0.1,0.06,0.19,0.15,0.21
				c0.15,0.05,0.29-0.06,0.29-0.21v-0.73c0.08,0.02,0.17,0.04,0.26,0.05v0.67c0,0.1,0.06,0.19,0.15,0.21
				c0.15,0.05,0.29-0.06,0.29-0.21v-0.68c0.09-0.01,0.17-0.03,0.26-0.05v0.72c0,0.1,0.06,0.19,0.15,0.21
				c0.15,0.05,0.29-0.06,0.29-0.21v-0.91C149.6,215.06,150.01,214.49,150.14,213.82z"/>
			<path fill="#683101" d="M137.22,209.56L137.22,209.56c-0.5-0.07-1,0.15-1.29,0.56l0,0c-0.33,0.47-0.35,1.09-0.05,1.58l1.69,2.77
				l0.56,2.17l0.13,1.64l-0.29,0.85h1.09l0.02-0.88l0.04-1.64l-0.13-1.9c-0.01-0.24,0.02-0.49,0.1-0.72l0,0
				c0.15-0.42,0.12-0.88-0.07-1.28l-0.29-0.59c-0.17-0.43-0.29-0.88-0.33-1.34l0,0C138.33,210.15,137.84,209.65,137.22,209.56z"/>
			<path fill="#DF7D05" d="M152.28,215.68L152.28,215.68c0.13-0.13,0.16-0.33,0.06-0.49l-0.34-0.54c-0.21-0.33-0.32-0.7-0.33-1.09
				l-0.04-1.56l-0.02-2.1c0.03-0.46,0.03-0.91-0.01-1.37v0v0c-0.01-0.07-0.01-0.14-0.02-0.22c-0.07-0.57-0.52-1.01-1.08-1.08
				c-1.36-0.16-2.89-0.14-4.15,0.07l-1.43,0.23c-0.75,0.12-1.51,0.13-2.27,0.04l-0.03,0c-1.34-0.17-2.7-0.13-4.02,0.11l-1.11,0.2
				c-0.91,0.17-1.85,0.01-2.65-0.45l-0.33,3.91l0.38,0.15c0.3,0.12,0.56,0.31,0.75,0.57c0.36,0.48,0.51,0.56,0.71,1.13
				c0.3,0.85,1.03,1.46,1.91,1.61c0.55,0.09,1.11,0.02,1.61-0.2c1-0.44,2.12-0.45,3.17-0.14c1.1,0.32,2.24,0.29,3.31-0.09l1.42-0.57
				h2.29l1.06,2.25c0.13,0.28,0.2,0.59,0.2,0.9v1.33l-0.38,0.88h1.36l-0.16-0.88l0.02-2.3C152.15,215.88,152.2,215.77,152.28,215.68
				z"/>
			<path fill="#A95A34" d="M138.87,209.6L138.87,209.6c-0.5-0.07-1,0.15-1.29,0.56l0,0c-0.33,0.47-0.35,1.09-0.05,1.58l1.69,2.77
				l0.56,2.17l0.13,1.64l-0.29,0.85h1.09l0.02-0.88l0.04-1.64l-0.13-1.9c-0.01-0.24,0.02-0.49,0.1-0.72l0,0
				c0.15-0.42,0.12-0.88-0.07-1.28l-0.29-0.59c-0.17-0.43-0.29-0.88-0.33-1.34l0,0C139.97,210.19,139.49,209.69,138.87,209.6z"/>
			<path fill="#A95A34" d="M146.24,208.75L146.24,208.75c-0.06,0.55,0.01,1.11,0.21,1.63l1.05,2.72c0.29,0.76,0.51,1.55,0.64,2.36
				l0.09,0.56l-0.27,2.27l-0.48,0.88h1.29l0.09-0.88l0.53-1.92c0.04-0.11,0.13-0.19,0.24-0.21l0,0c0.1-0.02,0.16-0.12,0.14-0.22
				l-0.11-0.6c-0.09-0.46-0.03-0.94,0.16-1.37l0.45-1.01c0.55-1.24,0.88-2.57,0.97-3.92l0,0c0.04-0.62-0.45-1.14-1.07-1.14h-2.98
				C146.7,207.91,146.29,208.27,146.24,208.75z"/>
			<g>
				<path d="M151.3,215.48l-0.07-0.85c-0.01-0.08-0.01-0.17,0-0.26l0.31-5.26c0.02-0.31-0.09-0.52-0.27-0.72
					c-0.13-0.15-0.17-0.36-0.1-0.55l0.08-0.2c0.4,0.37,0.75,0.95,0.72,1.5l-0.31,5.26c0,0.07,0,0.13,0,0.2l0.07,0.85L151.3,215.48z"
					/>
			</g>
			<ellipse fill="#683101" cx="148.73" cy="210.01" rx="0.73" ry="1.09"/>
			<path fill="#683101" d="M150.38,208.84c-0.03,0-0.06,0.01-0.08,0.01c0,0,0-0.01,0-0.01c0-0.21-0.16-0.38-0.36-0.38
				c-0.2,0-0.36,0.17-0.36,0.38c0,0.21,0.16,0.38,0.36,0.38c0.04,0,0.07-0.01,0.1-0.02c0,0.03-0.01,0.06-0.01,0.09
				c0,0.25,0.15,0.45,0.35,0.45s0.35-0.2,0.35-0.45C150.73,209.04,150.57,208.84,150.38,208.84z"/>
			<path fill="#A95A34" d="M140.17,208.92c-0.06,0-0.11,0.02-0.16,0.05c-0.02-0.21-0.2-0.38-0.41-0.38c-0.23,0-0.42,0.19-0.42,0.42
				c0,0.23,0.19,0.42,0.42,0.42c0.08,0,0.16-0.02,0.23-0.07c0,0.02,0,0.03,0,0.05c0,0.27,0.15,0.49,0.35,0.49s0.35-0.22,0.35-0.49
				C140.51,209.14,140.36,208.92,140.17,208.92z"/>
			<ellipse fill="#A95A34" cx="145.71" cy="210.95" rx="0.44" ry="0.65"/>
			<ellipse fill="#683101" cx="144.59" cy="209.11" rx="0.36" ry="0.39"/>
			<ellipse fill="#A95A34" cx="142.43" cy="211.43" rx="0.27" ry="0.33"/>
			<path fill="#683101" d="M136.83,213.3l-0.13-0.47c-0.05-0.18,0.17-0.31,0.3-0.18l0.3,0.29c0.13,0.12,0.32,0.14,0.47,0.04
				c0.14-0.09,0.2-0.26,0.15-0.42l-0.19-0.61c-0.05-0.16,0.09-0.31,0.25-0.27l1.14,0.26c0.19,0.04,0.36-0.11,0.36-0.3
				c0-0.13-0.08-0.24-0.2-0.29l-0.91-0.32c-0.15-0.05-0.25-0.19-0.27-0.34c-0.01-0.11,0.02-0.21,0.09-0.29l0.5-0.59
				c0.11-0.13,0.13-0.31,0.06-0.46c-0.07-0.15-0.22-0.25-0.39-0.25h-0.36c-0.23,0-0.43-0.16-0.49-0.38l-0.21-0.8
				c-0.85,0.12-1.72-0.05-2.47-0.48l-0.33,3.91l0.38,0.15c0.3,0.12,0.56,0.31,0.75,0.57c0.36,0.48,0.51,0.56,0.71,1.13
				c0.09,0.25,0.21,0.48,0.37,0.68C136.83,213.73,136.88,213.51,136.83,213.3z"/>
			<g>
				<path fill="#683101" d="M136.02,206.55c-0.06,0-0.09,0.04-0.12,0.1c-0.11,0.22-0.37,0.52-0.6,0.6l-0.54,0.2l0.16,0.56l0.4-0.2
					c0.36-0.19,0.68-0.59,0.75-1.07C136.07,206.63,136.07,206.58,136.02,206.55z"/>
				<path fill="#683101" d="M131.83,206.55c0.06,0,0.09,0.04,0.12,0.1c0.11,0.22,0.37,0.52,0.6,0.6l0.54,0.2l-0.16,0.56l-0.4-0.2
					c-0.36-0.19-0.68-0.59-0.75-1.07C131.77,206.63,131.77,206.58,131.83,206.55z"/>
				<g>
					<path fill="#DF7D05" d="M136.39,207.44L136.39,207.44c-0.31,0.07-0.59,0.21-0.81,0.43l0,0c-0.1,0.1-0.22,0.17-0.35,0.2
						l-0.18,0.05l0.11,0.42l0.72-0.11c0.39,0.11,0.81,0.05,1.15-0.17l0,0c0.17-0.11,0.53-0.43,0.58-0.63l0,0l-0.26-0.11
						C137.05,207.4,136.71,207.37,136.39,207.44z"/>
					<path fill="#A95A34" d="M135.89,208.36l-0.04,0.05l0.03,0.01c0.39,0.11,0.81,0.05,1.15-0.17l0,0c0.17-0.11,0.53-0.43,0.58-0.63
						c-0.19-0.02-0.49,0.02-0.77,0.09C136.46,207.82,136.13,208.05,135.89,208.36z"/>
				</g>
				<g>
					<path fill="#DF7D05" d="M131.52,207.44L131.52,207.44c0.31,0.07,0.59,0.21,0.81,0.43l0,0c0.1,0.1,0.22,0.17,0.35,0.2l0.18,0.05
						l-0.11,0.42l-0.72-0.11c-0.39,0.11-0.81,0.05-1.15-0.17l0,0c-0.17-0.11-0.53-0.43-0.58-0.63l0,0l0.26-0.11
						C130.86,207.4,131.19,207.37,131.52,207.44z"/>
					<path fill="#683101" d="M132.02,208.36l0.04,0.05l-0.03,0.01c-0.39,0.11-0.81,0.05-1.15-0.17l0,0
						c-0.17-0.11-0.53-0.43-0.58-0.63c0.19-0.02,0.49,0.02,0.77,0.09C131.44,207.82,131.78,208.05,132.02,208.36z"/>
				</g>
				<path fill="#A95A34" d="M132.44,209.24l0.16,0.64c0.06,0.22,0.16,0.44,0.26,0.64c0.11,0.23,0.2,0.47,0.24,0.74l0.07,0.75h1.57
					l0.1-0.76c0.05-0.26,0.13-0.52,0.25-0.76c0.1-0.21,0.19-0.43,0.26-0.66l0.13-0.59H132.44z"/>
				<path fill="#DF7D05" d="M134.23,207.32h-0.28h-0.28c-0.21,0.02-0.42,0.06-0.6,0.12c-0.41,0.14-0.67,0.53-0.67,0.96v0.46
					c0,0.06,0,0.13,0.01,0.19c0.01,0.13,0.03,0.26,0.07,0.38c0.07,0.27,0.36,0.52,0.5,0.76c0.15,0.26,0.25,0.55,0.28,0.86
					l-0.02,0.68h1.44l-0.02-0.68c0.03-0.31,0.13-0.61,0.28-0.86c0.14-0.23,0.43-0.49,0.5-0.76c0.03-0.12,0.06-0.25,0.07-0.38
					c0-0.06,0.01-0.13,0.01-0.19v-0.46c0-0.43-0.27-0.82-0.67-0.96C134.65,207.39,134.45,207.34,134.23,207.32z"/>
				<path fill="#A95A34" d="M134.37,209.74l0.01-0.05c0.09-0.47,0.41-0.87,0.85-1.06l0.27-0.12v-0.11c0-0.43-0.27-0.82-0.67-0.96
					c-0.18-0.06-0.39-0.1-0.6-0.12h-0.28h-0.28c-0.21,0.02-0.42,0.06-0.6,0.12c-0.41,0.14-0.67,0.53-0.67,0.96v0.11l0.27,0.12
					c0.44,0.19,0.76,0.59,0.85,1.06l0.01,0.05c0.05,0.28,0.07,0.56,0.06,0.85l-0.05,1.15h0.81l-0.05-1.15
					C134.3,210.3,134.32,210.02,134.37,209.74z"/>
				<g>
					<path d="M134.74,209.36c-0.13,0.14-0.09,0.38-0.09,0.38s0.25,0.01,0.37-0.13c0.13-0.14,0.09-0.38,0.09-0.38
						S134.87,209.22,134.74,209.36z"/>
					<circle fill="#40C7DD" cx="134.89" cy="209.49" r="0.1"/>
				</g>
				<g>
					<path d="M133.16,209.36c0.13,0.14,0.09,0.38,0.09,0.38s-0.25,0.01-0.37-0.13c-0.13-0.14-0.09-0.38-0.09-0.38
						S133.04,209.22,133.16,209.36z"/>
					<circle fill="#40C7DD" cx="133.02" cy="209.49" r="0.1"/>
				</g>
				<path opacity="0.2" fill="#683101" d="M134.31,210.58c-0.01-0.28,0.01-0.57,0.06-0.85l0.01-0.05c0.09-0.47,0.41-0.87,0.85-1.06
					l0.27-0.12v-0.11c0-0.43-0.27-0.82-0.67-0.96c-0.18-0.06-0.39-0.1-0.6-0.12h-0.28v4.41h0.4L134.31,210.58z"/>
				<path d="M133.61,212.32h0.67c0.07,0,0.15-0.01,0.21-0.04c0.15-0.06,0.24-0.2,0.26-0.36l0.02-0.23h-1.65l0.02,0.24
					c0.01,0.14,0.09,0.27,0.21,0.33C133.43,212.3,133.52,212.32,133.61,212.32z"/>
				<path fill="#683101" d="M134.2,211.02c-0.16,0.05-0.34,0.05-0.5,0c-0.2-0.06-0.43,0.01-0.55,0.19c-0.06,0.09-0.09,0.2-0.08,0.31
					c0.01,0.28,0.27,0.49,0.55,0.49h0.67c0.28,0,0.53-0.21,0.55-0.49c0.01-0.14-0.04-0.27-0.12-0.36
					C134.59,211.02,134.38,210.97,134.2,211.02z"/>
				<path d="M133.58,211.84L133.58,211.84c0.08-0.03,0.11-0.12,0.06-0.18l-0.04-0.06c-0.01-0.02-0.02-0.04-0.02-0.06l-0.01-0.07
					c-0.01-0.08-0.09-0.13-0.16-0.11l0,0c-0.05,0.02-0.09,0.07-0.08,0.12l0,0.03c0.01,0.09,0.04,0.18,0.09,0.26l0.01,0.02
					C133.47,211.84,133.53,211.86,133.58,211.84z"/>
				<path d="M134.33,211.84L134.33,211.84c-0.08-0.03-0.11-0.12-0.06-0.18l0.04-0.06c0.01-0.02,0.02-0.04,0.02-0.06l0.01-0.07
					c0.01-0.08,0.09-0.13,0.16-0.11l0,0c0.05,0.02,0.09,0.07,0.08,0.12l0,0.03c-0.01,0.09-0.04,0.18-0.09,0.26l-0.01,0.02
					C134.44,211.84,134.38,211.86,134.33,211.84z"/>
				<path fill="#683101" d="M134.91,207.66l-0.43-0.11l-0.04,0.27l-0.28-0.26l-0.21,0.34l-0.21-0.34l-0.28,0.26l-0.04-0.27
					l-0.43,0.11l0,0c0.21-0.25,0.51-0.39,0.83-0.39h0.24C134.39,207.28,134.7,207.42,134.91,207.66L134.91,207.66z"/>
				<path fill="#DF7D05" d="M134.76,207.52l-0.36-0.09l-0.03,0.23l-0.23-0.22l-0.17,0.29l-0.17-0.29l-0.23,0.22l-0.03-0.23
					l-0.36,0.09l0,0c0.18-0.21,0.43-0.33,0.71-0.33h0.2C134.33,207.2,134.58,207.32,134.76,207.52L134.76,207.52z"/>
				<path fill="#683101" d="M134.49,207.32l-0.24-0.06l-0.02,0.15l-0.16-0.15l-0.12,0.19l-0.12-0.19l-0.16,0.15l-0.02-0.15
					l-0.24,0.06l0,0c0.12-0.14,0.29-0.22,0.47-0.22h0.13C134.2,207.1,134.37,207.18,134.49,207.32L134.49,207.32z"/>
			</g>
			<path fill="#683101" d="M142.44,207.85c-0.07-0.02-0.15-0.03-0.23-0.03c-0.45,0-0.81,0.35-0.81,0.78c0,0.34,0.23,0.63,0.55,0.73
				c-0.1,0.16-0.16,0.35-0.16,0.55c0,0.53,0.4,0.97,0.9,0.97c0.1,0,0.19-0.02,0.28-0.05c-0.01,0.06-0.01,0.12-0.01,0.19
				c0,0.57,0.37,1.03,0.82,1.03c0.45,0,0.82-0.46,0.82-1.03c0-0.57-0.37-1.03-0.82-1.03c-0.07,0-0.13,0.01-0.19,0.03
				c0-0.03,0.01-0.07,0.01-0.1c0-0.44-0.28-0.82-0.66-0.93c0.04-0.07,0.06-0.14,0.08-0.21c0.13,0.07,0.28,0.11,0.44,0.11
				c0.56,0,1.01-0.5,1.01-1.12c0-0.04,0-0.08-0.01-0.13c-0.6,0.06-1.21,0.06-1.82-0.02l-0.03,0c-0.05-0.01-0.11-0.01-0.16-0.02
				c-0.01,0.05-0.01,0.11-0.01,0.17C142.43,207.77,142.44,207.81,142.44,207.85z"/>
			<path d="M151.27,215.11l-0.08,0.49c-0.05,0.3-0.03,0.62,0.07,0.91l0.07,0.23c0.09,0.27,0.08,0.56-0.02,0.83l0,0l0.06-0.04
				c0.28-0.18,0.47-0.46,0.53-0.79v0c0.09-0.49,0.04-1-0.13-1.47l-0.07-0.18L151.27,215.11z"/>
		</g>
		<path fill="#01904B" d="M87.29,255.2h282.13c5.51,0,9.98-4.47,9.98-9.98v-18.14l-33.11-16.4c-37.51-15.52-61.37-24.17-120.15-11.4
			c-7.46,1.62-50.46,21.12-83.41,17.38c-19.18-2.18-44.87,3.43-55.86,7.53l-9.56,2.89v18.14C77.32,250.74,81.78,255.2,87.29,255.2z"
			/>
		<path fill="#9FE054" d="M353.55,285.62H103.16c-5.51,0-9.98-4.47-9.98-9.98V255.2l35.9-14.45c32.88-12.35,68.21-17,103.13-13.18
			c30.9,3.38,55.65,9.84,100.02,19.35l31.31,8.28v20.44C363.53,281.15,359.07,285.62,353.55,285.62z"/>
		<g>
			<path fill="#FFC289" d="M101.98,212.77h5.86c-0.19,1-0.79,1.83-1.58,2.27v1.32c0,0.14-0.08,0.27-0.22,0.32
				c-0.22,0.07-0.43-0.09-0.43-0.31v-1.07c-0.12,0.03-0.25,0.06-0.38,0.07v0.99c0,0.14-0.08,0.27-0.22,0.32
				c-0.22,0.07-0.43-0.09-0.43-0.31v-1c-0.13-0.02-0.26-0.04-0.38-0.07v1.06c0,0.14-0.08,0.27-0.22,0.32
				c-0.22,0.07-0.43-0.09-0.43-0.31v-1.33C102.77,214.59,102.18,213.76,101.98,212.77z"/>
			<path fill="#683101" d="M120.97,206.51L120.97,206.51c0.74-0.1,1.47,0.22,1.9,0.83l0,0c0.49,0.69,0.52,1.6,0.08,2.32l-2.49,4.08
				l-0.82,3.19l-0.19,2.41l0.43,1.25h-1.6l-0.02-1.29l-0.06-2.41l0.19-2.8c0.02-0.36-0.03-0.72-0.15-1.06l0,0
				c-0.22-0.62-0.18-1.29,0.11-1.88l0.43-0.87c0.26-0.63,0.42-1.29,0.49-1.97l0,0C119.35,207.37,120.06,206.64,120.97,206.51z"/>
			<path fill="#DF7D05" d="M98.83,215.51L98.83,215.51c-0.2-0.19-0.23-0.49-0.09-0.72l0.5-0.79c0.3-0.48,0.47-1.03,0.48-1.6
				l0.06-2.29l0.03-3.09c-0.05-0.67-0.04-1.34,0.02-2.02v0v0c0.01-0.11,0.02-0.21,0.03-0.32c0.1-0.83,0.76-1.48,1.59-1.58
				c2-0.24,4.24-0.2,6.09,0.1l2.1,0.34c1.1,0.18,2.23,0.2,3.33,0.06l0.04-0.01c1.97-0.25,3.96-0.2,5.92,0.16l1.63,0.3
				c1.34,0.25,2.71,0.01,3.89-0.66l0.49,5.75l-0.56,0.22c-0.44,0.17-0.82,0.46-1.1,0.84c-0.53,0.7-0.75,0.82-1.05,1.66
				c-0.44,1.24-1.51,2.15-2.81,2.37c-0.8,0.14-1.63,0.03-2.37-0.29c-1.47-0.64-3.12-0.66-4.66-0.21c-1.61,0.47-3.3,0.43-4.87-0.14
				l-2.08-0.83h-3.37l-1.56,3.3c-0.2,0.41-0.3,0.86-0.3,1.32v1.95l0.55,1.29h-2l0.24-1.29l-0.02-3.38
				C99.02,215.8,98.96,215.63,98.83,215.51z"/>
			<path fill="#A95A34" d="M118.55,206.57L118.55,206.57c0.74-0.1,1.47,0.22,1.9,0.83l0,0c0.49,0.69,0.52,1.6,0.08,2.32l-2.49,4.08
				l-0.82,3.19l-0.19,2.41l0.43,1.25h-1.6l-0.02-1.29l-0.06-2.41l0.19-2.8c0.02-0.36-0.03-0.72-0.15-1.06l0,0
				c-0.22-0.62-0.18-1.29,0.11-1.88l0.43-0.87c0.26-0.63,0.42-1.29,0.49-1.97l0,0C116.93,207.43,117.64,206.7,118.55,206.57z"/>
			<path fill="#A95A34" d="M107.71,205.32L107.71,205.32c0.09,0.81-0.02,1.63-0.31,2.39l-1.54,4c-0.43,1.12-0.75,2.28-0.94,3.47
				l-0.13,0.82l0.39,3.34l0.71,1.29H104l-0.13-1.29l-0.78-2.82c-0.05-0.16-0.18-0.27-0.35-0.31l0,0c-0.15-0.03-0.24-0.17-0.21-0.32
				l0.17-0.88c0.13-0.68,0.05-1.38-0.23-2.01l-0.66-1.48c-0.81-1.82-1.29-3.78-1.43-5.77l0,0c-0.06-0.91,0.66-1.68,1.57-1.68h4.39
				C107.04,204.08,107.63,204.62,107.71,205.32z"/>
			<g>
				<path d="M100.27,215.21l0.1-1.25c0.01-0.12,0.01-0.25,0-0.38l-0.45-7.74c-0.03-0.45,0.14-0.76,0.4-1.06
					c0.2-0.22,0.25-0.53,0.14-0.81l-0.12-0.3c-0.59,0.55-1.1,1.4-1.06,2.21l0.45,7.74c0.01,0.1,0,0.19,0,0.29l-0.1,1.25
					L100.27,215.21z"/>
			</g>
			<ellipse fill="#683101" cx="104.05" cy="207.16" rx="1.07" ry="1.6"/>
			<path fill="#683101" d="M101.63,205.45c0.04,0,0.08,0.01,0.12,0.02c0-0.01,0-0.01,0-0.02c0-0.31,0.24-0.55,0.53-0.55
				c0.29,0,0.53,0.25,0.53,0.55c0,0.31-0.24,0.55-0.53,0.55c-0.05,0-0.1-0.01-0.15-0.03c0.01,0.04,0.01,0.09,0.01,0.14
				c0,0.37-0.23,0.67-0.51,0.67s-0.51-0.3-0.51-0.67C101.12,205.75,101.34,205.45,101.63,205.45z"/>
			<path fill="#A95A34" d="M116.64,205.56c0.08,0,0.16,0.03,0.23,0.08c0.03-0.31,0.29-0.55,0.61-0.55c0.34,0,0.61,0.27,0.61,0.61
				s-0.27,0.61-0.61,0.61c-0.12,0-0.24-0.04-0.33-0.1c0,0.02,0,0.05,0,0.07c0,0.4-0.23,0.72-0.51,0.72s-0.51-0.32-0.51-0.72
				C116.13,205.89,116.36,205.56,116.64,205.56z"/>
			<ellipse fill="#A95A34" cx="108.5" cy="208.55" rx="0.65" ry="0.96"/>
			<ellipse fill="#683101" cx="110.14" cy="205.84" rx="0.53" ry="0.57"/>
			<ellipse fill="#A95A34" cx="113.31" cy="209.25" rx="0.4" ry="0.48"/>
			<path fill="#683101" d="M121.55,212.02l0.2-0.7c0.07-0.26-0.25-0.46-0.45-0.26l-0.44,0.43c-0.18,0.18-0.47,0.21-0.68,0.07
				c-0.2-0.13-0.29-0.38-0.22-0.62l0.27-0.9c0.07-0.23-0.14-0.46-0.37-0.4l-1.67,0.38c-0.28,0.05-0.54-0.16-0.54-0.44
				c0-0.19,0.12-0.36,0.3-0.42l1.34-0.47c0.22-0.08,0.37-0.27,0.39-0.51c0.01-0.16-0.04-0.31-0.14-0.43l-0.74-0.86
				c-0.16-0.19-0.19-0.45-0.09-0.67c0.1-0.22,0.33-0.36,0.57-0.36h0.53c0.34,0,0.64-0.23,0.72-0.56l0.31-1.18
				c1.25,0.17,2.53-0.07,3.64-0.7l0.49,5.75l-0.56,0.22c-0.44,0.17-0.82,0.46-1.1,0.84c-0.53,0.7-0.75,0.82-1.05,1.66
				c-0.13,0.36-0.31,0.7-0.54,1C121.54,212.64,121.47,212.32,121.55,212.02z"/>
			<g>
				<path fill="#683101" d="M122.75,202.09c0.09,0,0.13,0.06,0.17,0.15c0.16,0.32,0.55,0.76,0.88,0.88l0.79,0.29l-0.24,0.82
					l-0.59-0.3c-0.54-0.27-1-0.87-1.11-1.57C122.66,202.21,122.66,202.13,122.75,202.09z"/>
				<path fill="#683101" d="M128.9,202.09c-0.09,0-0.13,0.06-0.17,0.15c-0.16,0.32-0.55,0.76-0.88,0.88l-0.79,0.29l0.24,0.82
					l0.59-0.3c0.54-0.27,1-0.87,1.11-1.57C128.99,202.21,128.98,202.13,128.9,202.09z"/>
				<g>
					<path fill="#DF7D05" d="M122.19,203.39l0.01,0c0.44,0.1,0.85,0.31,1.18,0.63l0,0c0.14,0.15,0.32,0.25,0.51,0.3l0.26,0.07
						l-0.16,0.62l-1.05-0.16c-0.57,0.17-1.19,0.08-1.69-0.24l0,0c-0.25-0.16-0.79-0.64-0.85-0.92l0,0l0.39-0.16
						C121.23,203.33,121.72,203.29,122.19,203.39z"/>
					<path fill="#A95A34" d="M122.93,204.75l0.06,0.07l-0.05,0.02c-0.57,0.17-1.19,0.08-1.69-0.24l0,0
						c-0.25-0.16-0.79-0.64-0.85-0.92c0.28-0.03,0.72,0.02,1.13,0.13C122.09,203.95,122.58,204.29,122.93,204.75z"/>
				</g>
				<g>
					<path fill="#DF7D05" d="M129.36,203.39l-0.01,0c-0.44,0.1-0.85,0.31-1.18,0.63l0,0c-0.14,0.15-0.32,0.25-0.51,0.3l-0.26,0.07
						l0.16,0.62l1.05-0.16c0.57,0.17,1.19,0.08,1.69-0.24l0,0c0.25-0.16,0.79-0.64,0.85-0.92l0,0l-0.39-0.16
						C130.32,203.33,129.83,203.29,129.36,203.39z"/>
					<path fill="#683101" d="M128.62,204.75l-0.06,0.07l0.05,0.02c0.57,0.17,1.19,0.08,1.69-0.24l0,0c0.25-0.16,0.79-0.64,0.85-0.92
						c-0.28-0.03-0.72,0.02-1.13,0.13C129.46,203.95,128.97,204.29,128.62,204.75z"/>
				</g>
				<path fill="#A95A34" d="M128,206.04l-0.24,0.94c-0.1,0.33-0.23,0.64-0.38,0.95c-0.17,0.34-0.29,0.69-0.35,1.08l-0.1,1.1h-2.31
					l-0.15-1.12c-0.07-0.38-0.19-0.76-0.36-1.12c-0.15-0.32-0.29-0.64-0.38-0.98l-0.19-0.86H128z"/>
				<path fill="#DF7D05" d="M125.37,203.22h0.41h0.41c0.31,0.03,0.61,0.09,0.88,0.18c0.6,0.2,0.99,0.77,0.99,1.41v0.67
					c0,0.09,0,0.19-0.01,0.28c-0.01,0.19-0.05,0.38-0.1,0.56c-0.11,0.4-0.53,0.77-0.74,1.11c-0.22,0.38-0.36,0.81-0.41,1.27l0.03,1
					h-2.12l0.03-1c-0.05-0.46-0.19-0.89-0.41-1.27c-0.2-0.34-0.63-0.72-0.74-1.11c-0.05-0.18-0.09-0.37-0.1-0.56
					c-0.01-0.09-0.01-0.19-0.01-0.28v-0.67c0-0.63,0.39-1.21,0.99-1.41C124.76,203.31,125.05,203.25,125.37,203.22z"/>
				<path fill="#A95A34" d="M125.16,206.77l-0.01-0.07c-0.13-0.69-0.6-1.28-1.25-1.55l-0.4-0.17v-0.17c0-0.63,0.39-1.21,0.99-1.41
					c0.27-0.09,0.57-0.15,0.88-0.18h0.41h0.41c0.31,0.03,0.61,0.09,0.88,0.18c0.6,0.2,0.99,0.77,0.99,1.41v0.17l-0.4,0.17
					c-0.65,0.28-1.12,0.86-1.25,1.55l-0.01,0.07c-0.08,0.41-0.11,0.83-0.09,1.24l0.07,1.69h-1.19l0.07-1.69
					C125.27,207.6,125.24,207.18,125.16,206.77z"/>
				<g>
					<path d="M124.62,206.22c0.19,0.21,0.13,0.56,0.13,0.56s-0.36,0.02-0.55-0.19c-0.19-0.21-0.13-0.56-0.13-0.56
						S124.43,206.01,124.62,206.22z"/>
					<circle fill="#40C7DD" cx="124.41" cy="206.41" r="0.15"/>
				</g>
				<g>
					<path d="M126.94,206.22c-0.19,0.21-0.13,0.56-0.13,0.56s0.36,0.02,0.55-0.19c0.19-0.21,0.13-0.56,0.13-0.56
						S127.12,206.01,126.94,206.22z"/>
					<circle fill="#40C7DD" cx="127.15" cy="206.41" r="0.15"/>
				</g>
				<path opacity="0.2" fill="#683101" d="M125.25,208.01c0.02-0.42-0.01-0.83-0.09-1.24l-0.01-0.07c-0.13-0.69-0.6-1.28-1.25-1.55
					l-0.4-0.17v-0.17c0-0.63,0.39-1.21,0.99-1.41c0.27-0.09,0.57-0.15,0.88-0.18h0.41v6.49h-0.59L125.25,208.01z"/>
				<path d="M126.27,210.57h-0.98c-0.11,0-0.22-0.02-0.31-0.06c-0.21-0.09-0.35-0.3-0.38-0.52l-0.03-0.34H127l-0.03,0.35
					c-0.02,0.2-0.13,0.4-0.31,0.49C126.54,210.53,126.41,210.57,126.27,210.57z"/>
				<path fill="#683101" d="M125.41,208.65c0.24,0.07,0.5,0.07,0.73,0c0.3-0.08,0.64,0.02,0.81,0.28c0.09,0.13,0.13,0.29,0.12,0.46
					c-0.02,0.41-0.39,0.72-0.8,0.72h-0.98c-0.41,0-0.78-0.31-0.8-0.72c-0.01-0.2,0.06-0.39,0.18-0.53
					C124.85,208.65,125.14,208.58,125.41,208.65z"/>
				<path d="M126.33,209.86L126.33,209.86c-0.11-0.04-0.15-0.17-0.09-0.27l0.06-0.08c0.02-0.03,0.03-0.06,0.03-0.09l0.01-0.1
					c0.01-0.12,0.13-0.2,0.24-0.16l0,0c0.08,0.03,0.12,0.1,0.12,0.18l0,0.04c-0.01,0.14-0.06,0.27-0.14,0.38l-0.02,0.03
					C126.49,209.86,126.4,209.89,126.33,209.86z"/>
				<path d="M125.22,209.86L125.22,209.86c0.11-0.04,0.15-0.17,0.09-0.27l-0.06-0.08c-0.02-0.03-0.03-0.06-0.03-0.09l-0.01-0.1
					c-0.01-0.12-0.13-0.2-0.24-0.16l0,0c-0.08,0.03-0.13,0.1-0.12,0.18l0,0.04c0.01,0.14,0.06,0.27,0.14,0.38l0.02,0.03
					C125.06,209.86,125.15,209.89,125.22,209.86z"/>
				<path fill="#683101" d="M124.38,203.72l0.63-0.16l0.06,0.4l0.41-0.39l0.3,0.5l0.3-0.5l0.41,0.39l0.06-0.4l0.63,0.16l0,0
					c-0.3-0.36-0.75-0.57-1.23-0.57h-0.35C125.13,203.15,124.68,203.36,124.38,203.72L124.38,203.72z"/>
				<path fill="#DF7D05" d="M124.59,203.52l0.54-0.13l0.05,0.34l0.34-0.33l0.26,0.43l0.26-0.43l0.34,0.33l0.05-0.34l0.54,0.13l0,0
					c-0.26-0.31-0.64-0.48-1.04-0.48h-0.29C125.23,203.03,124.85,203.21,124.59,203.52L124.59,203.52z"/>
				<path fill="#683101" d="M124.99,203.21l0.36-0.09l0.03,0.22l0.23-0.22l0.17,0.28l0.17-0.28l0.23,0.22l0.03-0.22l0.36,0.09l0,0
					c-0.17-0.2-0.42-0.32-0.69-0.32h-0.2C125.41,202.89,125.16,203.01,124.99,203.21L124.99,203.21z"/>
			</g>
			<path fill="#683101" d="M113.3,204c0.11-0.03,0.22-0.05,0.34-0.05c0.66,0,1.19,0.51,1.19,1.14c0,0.5-0.34,0.93-0.81,1.08
				c0.15,0.23,0.24,0.51,0.24,0.81c0,0.78-0.59,1.42-1.32,1.42c-0.14,0-0.28-0.03-0.41-0.07c0.01,0.09,0.02,0.18,0.02,0.27
				c0,0.83-0.54,1.51-1.2,1.51c-0.67,0-1.2-0.68-1.2-1.51c0-0.83,0.54-1.51,1.2-1.51c0.1,0,0.19,0.02,0.28,0.04
				c-0.01-0.05-0.01-0.1-0.01-0.15c0-0.65,0.41-1.2,0.97-1.37c-0.05-0.1-0.09-0.2-0.11-0.31c-0.2,0.11-0.42,0.17-0.65,0.17
				c-0.82,0-1.49-0.74-1.49-1.65c0-0.06,0-0.12,0.01-0.18c0.89,0.09,1.79,0.08,2.67-0.03l0.04-0.01c0.08-0.01,0.16-0.02,0.24-0.03
				c0.01,0.08,0.02,0.16,0.02,0.25C113.31,203.88,113.3,203.94,113.3,204z"/>
			<path d="M100.32,214.67l0.12,0.71c0.08,0.45,0.04,0.91-0.1,1.34l-0.11,0.34c-0.13,0.4-0.12,0.83,0.03,1.22l0,0l-0.08-0.05
				c-0.41-0.26-0.69-0.68-0.78-1.16v0c-0.13-0.72-0.06-1.47,0.19-2.16l0.1-0.26L100.32,214.67z"/>
		</g>
		<g>
			<path fill="#FFC289" d="M167.1,211.23h-4.86c0.16,0.83,0.65,1.52,1.31,1.89v1.1c0,0.12,0.07,0.23,0.18,0.26
				c0.18,0.06,0.35-0.08,0.35-0.25v-0.89c0.1,0.03,0.21,0.05,0.32,0.06v0.82c0,0.12,0.07,0.23,0.18,0.26
				c0.18,0.06,0.35-0.08,0.35-0.25v-0.83c0.11-0.01,0.21-0.03,0.32-0.06v0.88c0,0.12,0.07,0.23,0.18,0.26
				c0.18,0.06,0.35-0.08,0.35-0.25v-1.11C166.44,212.74,166.94,212.06,167.1,211.23z"/>
			<path d="M151.34,206.04L151.34,206.04c-0.61-0.08-1.22,0.18-1.58,0.69l0,0c-0.4,0.57-0.43,1.33-0.06,1.92l2.06,3.38l0.68,2.65
				l0.16,2l-0.36,1.03h1.33l0.02-1.07l0.05-2l-0.15-2.32c-0.02-0.3,0.03-0.6,0.13-0.88l0,0c0.18-0.51,0.15-1.07-0.09-1.56
				l-0.35-0.72c-0.21-0.52-0.35-1.07-0.41-1.64l0,0C152.69,206.75,152.1,206.14,151.34,206.04z"/>
			<path fill="#FFFFFF" d="M169.71,213.51L169.71,213.51c0.16-0.16,0.19-0.41,0.07-0.6l-0.42-0.66c-0.25-0.4-0.39-0.85-0.4-1.32
				l-0.05-1.9l-0.03-2.57c0.04-0.56,0.03-1.12-0.02-1.67v0l0,0c-0.01-0.09-0.02-0.18-0.03-0.26c-0.08-0.69-0.63-1.23-1.32-1.31
				c-1.66-0.2-3.52-0.17-5.06,0.08l-1.75,0.28c-0.92,0.15-1.85,0.16-2.77,0.05l-0.03,0c-1.63-0.21-3.29-0.16-4.91,0.14l-1.35,0.25
				c-1.11,0.2-2.25,0.01-3.23-0.55l-0.41,4.78l0.46,0.18c0.36,0.14,0.68,0.38,0.91,0.69c0.44,0.58,0.62,0.68,0.87,1.38
				c0.36,1.03,1.26,1.78,2.33,1.97c0.67,0.11,1.35,0.03,1.96-0.24c1.22-0.53,2.59-0.55,3.86-0.17c1.34,0.39,2.73,0.36,4.04-0.12
				l1.73-0.69h2.8l1.3,2.74c0.16,0.34,0.25,0.72,0.25,1.1v1.62l-0.46,1.07h1.66l-0.2-1.07l0.02-2.8
				C169.55,213.74,169.61,213.61,169.71,213.51z"/>
			<path fill="#E6E6E6" d="M153.35,206.09L153.35,206.09c-0.61-0.08-1.22,0.18-1.58,0.69l0,0c-0.4,0.57-0.43,1.33-0.06,1.92
				l2.06,3.38l0.68,2.65l0.16,2l-0.36,1.03h1.33l0.02-1.07l0.05-2l-0.15-2.32c-0.02-0.3,0.03-0.6,0.13-0.88l0,0
				c0.18-0.51,0.15-1.07-0.09-1.56l-0.35-0.72c-0.21-0.52-0.35-1.07-0.41-1.64l0,0C154.69,206.8,154.11,206.19,153.35,206.09z"/>
			<path fill="#E6E6E6" d="M162.34,205.05L162.34,205.05c-0.07,0.67,0.02,1.35,0.26,1.99l1.28,3.32c0.36,0.93,0.62,1.89,0.78,2.88
				l0.11,0.68l-0.32,2.77l-0.59,1.07h1.57l0.11-1.07l0.65-2.34c0.04-0.13,0.15-0.23,0.29-0.25l0,0c0.12-0.02,0.2-0.14,0.18-0.26
				l-0.14-0.73c-0.11-0.56-0.04-1.15,0.19-1.67l0.55-1.23c0.67-1.51,1.07-3.14,1.19-4.79l0,0c0.05-0.75-0.55-1.39-1.3-1.39h-3.64
				C162.9,204.02,162.41,204.46,162.34,205.05z"/>
			<g>
				<path d="M168.51,213.26l-0.09-1.04c-0.01-0.1-0.01-0.21,0-0.31l0.37-6.42c0.02-0.37-0.11-0.63-0.33-0.88
					c-0.16-0.18-0.21-0.44-0.12-0.67l0.1-0.25c0.49,0.46,0.91,1.16,0.88,1.83l-0.37,6.42c0,0.08,0,0.16,0,0.24l0.09,1.04
					L168.51,213.26z"/>
			</g>
			<ellipse cx="165.38" cy="206.58" rx="0.89" ry="1.33"/>
			<path d="M167.39,205.16c-0.04,0-0.07,0.01-0.1,0.02c0-0.01,0-0.01,0-0.02c0-0.25-0.2-0.46-0.44-0.46c-0.24,0-0.44,0.21-0.44,0.46
				s0.2,0.46,0.44,0.46c0.04,0,0.09-0.01,0.13-0.02c-0.01,0.04-0.01,0.08-0.01,0.12c0,0.31,0.19,0.55,0.42,0.55
				c0.23,0,0.42-0.25,0.42-0.55S167.63,205.16,167.39,205.16z"/>
			<path d="M154.93,205.25c-0.07,0-0.13,0.02-0.19,0.07c-0.02-0.26-0.24-0.46-0.5-0.46c-0.28,0-0.51,0.23-0.51,0.51
				s0.23,0.51,0.51,0.51c0.1,0,0.2-0.03,0.28-0.08c0,0.02,0,0.04,0,0.06c0,0.33,0.19,0.6,0.42,0.6c0.23,0,0.42-0.27,0.42-0.6
				S155.17,205.25,154.93,205.25z"/>
			<ellipse cx="161.69" cy="207.73" rx="0.54" ry="0.79"/>
			<ellipse cx="160.33" cy="205.48" rx="0.44" ry="0.47"/>
			<ellipse cx="157.7" cy="208.31" rx="0.33" ry="0.4"/>
			<path d="M150.86,210.6l-0.16-0.58c-0.06-0.22,0.21-0.38,0.37-0.22l0.36,0.36c0.15,0.15,0.39,0.17,0.57,0.05
				c0.17-0.11,0.24-0.32,0.18-0.51l-0.23-0.75c-0.06-0.19,0.11-0.38,0.31-0.33l1.38,0.31c0.23,0.05,0.44-0.13,0.44-0.36
				c0-0.16-0.1-0.3-0.25-0.35l-1.11-0.39c-0.18-0.06-0.31-0.23-0.32-0.42c-0.01-0.13,0.03-0.26,0.11-0.36l0.61-0.72
				c0.13-0.16,0.16-0.37,0.08-0.56c-0.09-0.18-0.27-0.3-0.47-0.3h-0.44c-0.28,0-0.53-0.19-0.6-0.46l-0.25-0.98
				c-1.04,0.14-2.1-0.06-3.02-0.58l-0.41,4.78l0.46,0.18c0.36,0.14,0.68,0.38,0.91,0.69c0.44,0.58,0.62,0.68,0.87,1.38
				c0.11,0.3,0.26,0.58,0.45,0.83C150.86,211.12,150.93,210.86,150.86,210.6z"/>
			<g>
				<path fill="#616D70" d="M149.87,202.36c-0.07,0-0.11,0.05-0.14,0.12c-0.13,0.26-0.46,0.63-0.73,0.73l-0.66,0.24l0.2,0.68
					l0.49-0.25c0.44-0.23,0.83-0.72,0.92-1.3C149.94,202.46,149.93,202.4,149.87,202.36z"/>
				<path fill="#616D70" d="M144.76,202.36c0.07,0,0.11,0.05,0.14,0.12c0.13,0.26,0.46,0.63,0.73,0.73l0.66,0.24l-0.2,0.68
					l-0.49-0.25c-0.44-0.23-0.83-0.72-0.92-1.3C144.68,202.46,144.69,202.4,144.76,202.36z"/>
				<g>
					<path fill="#E6E6E6" d="M150.33,203.45l-0.01,0c-0.37,0.08-0.71,0.26-0.98,0.52l0,0c-0.12,0.12-0.26,0.21-0.43,0.25l-0.22,0.06
						l0.14,0.51l0.87-0.14c0.47,0.14,0.99,0.07,1.4-0.2l0,0c0.2-0.13,0.65-0.53,0.71-0.77l0,0l-0.32-0.13
						C151.13,203.4,150.72,203.36,150.33,203.45z"/>
					<path fill="#616D70" d="M149.71,204.58l-0.05,0.06l0.04,0.01c0.47,0.14,0.99,0.07,1.4-0.2l0,0c0.2-0.13,0.65-0.53,0.71-0.77
						c-0.24-0.03-0.6,0.02-0.94,0.11C150.41,203.91,150,204.19,149.71,204.58z"/>
				</g>
				<g>
					<path fill="#E6E6E6" d="M144.38,203.45l0.01,0c0.37,0.08,0.71,0.26,0.98,0.52l0,0c0.12,0.12,0.26,0.21,0.43,0.25l0.22,0.06
						l-0.14,0.51l-0.87-0.14c-0.48,0.14-0.99,0.07-1.4-0.2l0,0c-0.2-0.13-0.65-0.53-0.71-0.77l0,0l0.32-0.13
						C143.58,203.4,143.98,203.36,144.38,203.45z"/>
					<path fill="#616D70" d="M144.99,204.58l0.05,0.06l-0.04,0.01c-0.48,0.14-0.99,0.07-1.4-0.2l0,0c-0.2-0.13-0.65-0.53-0.71-0.77
						c0.24-0.03,0.6,0.02,0.94,0.11C144.29,203.91,144.7,204.19,144.99,204.58z"/>
				</g>
				<path fill="#616D70" d="M145.5,205.65l0.2,0.78c0.08,0.27,0.19,0.53,0.31,0.79c0.14,0.28,0.24,0.58,0.29,0.9l0.08,0.91h1.92
					l0.12-0.93c0.06-0.32,0.16-0.63,0.3-0.93c0.13-0.26,0.24-0.53,0.31-0.81l0.16-0.71H145.5z"/>
				<path fill="#E6E6E6" d="M147.69,203.31h-0.34h-0.34c-0.26,0.02-0.51,0.08-0.73,0.15c-0.5,0.16-0.82,0.64-0.82,1.17v0.56
					c0,0.08,0,0.15,0.01,0.23c0.01,0.16,0.04,0.32,0.08,0.47c0.09,0.33,0.44,0.64,0.61,0.92c0.18,0.31,0.3,0.67,0.34,1.05
					l-0.02,0.83h1.76l-0.02-0.83c0.04-0.38,0.16-0.74,0.34-1.05c0.17-0.29,0.52-0.6,0.61-0.92c0.04-0.15,0.07-0.31,0.08-0.47
					c0-0.08,0.01-0.15,0.01-0.23v-0.56c0-0.52-0.32-1-0.82-1.17C148.2,203.38,147.95,203.33,147.69,203.31z"/>
				<path fill="#616D70" d="M147.86,206.25l0.01-0.06c0.11-0.58,0.5-1.06,1.04-1.29l0.33-0.14v-0.14c0-0.52-0.32-1-0.82-1.17
					c-0.23-0.07-0.47-0.13-0.73-0.15h-0.34h-0.34c-0.26,0.02-0.51,0.08-0.73,0.15c-0.5,0.16-0.82,0.64-0.82,1.17v0.14l0.33,0.14
					c0.54,0.23,0.93,0.71,1.04,1.29l0.01,0.06c0.06,0.34,0.09,0.69,0.08,1.03l-0.06,1.4h0.98l-0.06-1.4
					C147.77,206.94,147.8,206.59,147.86,206.25z"/>
				<g>
					<path d="M148.31,205.79c-0.16,0.17-0.11,0.47-0.11,0.47s0.3,0.02,0.46-0.15c0.16-0.17,0.11-0.47,0.11-0.47
						S148.47,205.62,148.31,205.79z"/>
					<circle fill="#FFFFFF" cx="148.49" cy="205.95" r="0.12"/>
				</g>
				<g>
					<path d="M146.39,205.79c0.16,0.17,0.11,0.47,0.11,0.47s-0.3,0.02-0.46-0.15c-0.16-0.17-0.11-0.47-0.11-0.47
						S146.23,205.62,146.39,205.79z"/>
					<circle fill="#FFFFFF" cx="146.21" cy="205.95" r="0.12"/>
				</g>
				<path opacity="0.5" d="M147.79,207.28c-0.01-0.35,0.01-0.69,0.08-1.03l0.01-0.06c0.11-0.58,0.5-1.06,1.04-1.29l0.33-0.14v-0.14
					c0-0.52-0.32-1-0.82-1.17c-0.23-0.07-0.47-0.13-0.73-0.15h-0.34v5.38h0.49L147.79,207.28z"/>
				<path d="M146.94,209.4h0.82c0.09,0,0.18-0.02,0.26-0.05c0.18-0.07,0.29-0.24,0.31-0.44l0.03-0.29h-2.01l0.03,0.29
					c0.02,0.17,0.11,0.33,0.26,0.41C146.72,209.37,146.83,209.4,146.94,209.4z"/>
				<path fill="#E6E6E6" d="M147.65,207.81c-0.2,0.06-0.41,0.06-0.61,0c-0.25-0.07-0.53,0.02-0.67,0.23
					c-0.07,0.11-0.11,0.24-0.1,0.38c0.02,0.34,0.32,0.6,0.67,0.6h0.82c0.34,0,0.65-0.26,0.67-0.6c0.01-0.17-0.05-0.32-0.15-0.44
					C148.12,207.81,147.88,207.75,147.65,207.81z"/>
				<path d="M146.89,208.82L146.89,208.82c0.09-0.03,0.13-0.14,0.07-0.23l-0.05-0.07c-0.02-0.02-0.02-0.05-0.03-0.07l-0.01-0.08
					c-0.01-0.1-0.11-0.16-0.2-0.13l0,0c-0.06,0.02-0.1,0.08-0.1,0.15l0,0.03c0.01,0.11,0.05,0.22,0.11,0.32l0.02,0.03
					C146.76,208.82,146.83,208.84,146.89,208.82z"/>
				<path d="M147.81,208.82L147.81,208.82c-0.09-0.03-0.13-0.14-0.07-0.23l0.05-0.07c0.02-0.02,0.02-0.05,0.03-0.07l0.01-0.08
					c0.01-0.1,0.11-0.16,0.2-0.13l0,0c0.06,0.02,0.1,0.08,0.1,0.15l0,0.03c-0.01,0.11-0.05,0.22-0.11,0.32l-0.02,0.03
					C147.94,208.82,147.87,208.84,147.81,208.82z"/>
				<path d="M148.51,203.72l-0.53-0.13l-0.05,0.33l-0.34-0.32l-0.25,0.42l-0.25-0.42l-0.34,0.32l-0.05-0.33l-0.53,0.13l0,0
					c0.25-0.3,0.63-0.47,1.02-0.47h0.29C147.89,203.25,148.26,203.42,148.51,203.72L148.51,203.72z"/>
				<path fill="#FFFFFF" d="M148.33,203.55l-0.44-0.11l-0.04,0.28l-0.29-0.27l-0.21,0.35l-0.21-0.35l-0.29,0.27l-0.04-0.28
					l-0.44,0.11l0,0c0.21-0.25,0.53-0.4,0.86-0.4h0.24C147.81,203.15,148.12,203.3,148.33,203.55L148.33,203.55z"/>
				<path d="M148,203.3l-0.3-0.07l-0.03,0.19l-0.19-0.18l-0.14,0.23l-0.14-0.23l-0.19,0.18l-0.03-0.19l-0.3,0.07l0,0
					c0.14-0.17,0.35-0.27,0.57-0.27h0.16C147.65,203.03,147.86,203.13,148,203.3L148,203.3z"/>
			</g>
			<path d="M157.71,203.95c-0.09-0.03-0.18-0.04-0.28-0.04c-0.55,0-0.99,0.42-0.99,0.95c0,0.42,0.28,0.77,0.67,0.9
				c-0.12,0.19-0.2,0.42-0.2,0.67c0,0.65,0.49,1.18,1.1,1.18c0.12,0,0.23-0.02,0.34-0.06c-0.01,0.07-0.02,0.15-0.02,0.23
				c0,0.69,0.45,1.25,1,1.25c0.55,0,1-0.56,1-1.25s-0.45-1.25-1-1.25c-0.08,0-0.16,0.01-0.23,0.04c0-0.04,0.01-0.08,0.01-0.13
				c0-0.54-0.34-0.99-0.8-1.13c0.04-0.08,0.08-0.17,0.09-0.26c0.16,0.09,0.35,0.14,0.54,0.14c0.68,0,1.24-0.61,1.24-1.37
				c0-0.05,0-0.1-0.01-0.15c-0.74,0.08-1.48,0.07-2.22-0.02l-0.03,0c-0.07-0.01-0.13-0.02-0.2-0.02c-0.01,0.07-0.02,0.14-0.02,0.21
				C157.7,203.85,157.7,203.9,157.71,203.95z"/>
			<path fill="#E6E6E6" d="M168.48,212.81l-0.1,0.59c-0.06,0.37-0.04,0.75,0.08,1.11l0.09,0.28c0.11,0.33,0.1,0.69-0.02,1.01l0,0
				l0.07-0.04c0.34-0.22,0.57-0.56,0.64-0.96l0,0c0.11-0.6,0.05-1.22-0.16-1.79l-0.08-0.22L168.48,212.81z"/>
		</g>
		<path fill="#58AC00" d="M346.3,285.61v-0.56l-0.75-19.77c-0.05-0.25-0.4-0.25-0.45,0l-0.86,20.33h-0.67l-0.86-20.33
			c-0.05-0.25-0.4-0.25-0.45,0l-0.86,20.33h-0.67l-0.86-20.33c-0.05-0.25-0.4-0.25-0.45,0l-0.86,20.33h-0.67l-0.86-20.33
			c-0.05-0.25-0.4-0.25-0.45,0l-0.86,20.33h-0.69l-0.86-20.33c-0.05-0.25-0.4-0.25-0.45,0l-0.86,20.33h-0.67l-0.86-20.33
			c-0.05-0.25-0.4-0.25-0.45,0l-0.86,20.33h-0.67l-0.86-20.33c-0.05-0.25-0.4-0.25-0.45,0l-0.86,20.33h-0.67l-0.86-20.33
			c-0.05-0.25-0.4-0.25-0.45,0l-0.86,20.33h-0.67l-0.86-20.33c-0.05-0.25-0.4-0.25-0.45,0l-0.86,20.33h-0.67l-0.86-20.33
			c-0.05-0.25-0.4-0.25-0.45,0l-0.86,20.33h-0.67l-0.86-20.33c-0.05-0.25-0.4-0.25-0.45,0l-0.86,20.33h-0.67l-0.86-20.33
			c-0.05-0.25-0.4-0.25-0.45,0l-0.86,20.33h-0.67l-0.86-20.33c-0.05-0.25-0.4-0.25-0.45,0l-0.86,20.33h-0.67l-0.86-20.33
			c-0.05-0.25-0.4-0.25-0.45,0l-0.86,20.33h-0.67l-0.86-20.33c-0.05-0.25-0.4-0.25-0.45,0l-0.86,20.33h-0.67l-0.86-20.33
			c-0.05-0.25-0.4-0.25-0.45,0l-0.86,20.33h-0.69l-0.86-20.33c-0.05-0.25-0.4-0.25-0.45,0l-0.86,20.33h-0.67l-0.86-20.33
			c-0.05-0.25-0.4-0.25-0.45,0l-0.86,20.33h-0.67l-0.86-20.33c-0.05-0.25-0.4-0.25-0.45,0l-0.86,20.33h-0.67l-0.86-20.33
			c-0.05-0.25-0.4-0.25-0.45,0l-0.86,20.33h-0.67l-0.86-20.33c-0.05-0.25-0.4-0.25-0.45,0l-0.86,20.33h-0.67l-0.86-20.33
			c-0.05-0.25-0.4-0.25-0.45,0l-0.86,20.33h-0.67l-0.86-20.33c-0.05-0.25-0.4-0.25-0.45,0l-0.86,20.33h-0.67l-0.86-20.33
			c-0.05-0.25-0.4-0.25-0.45,0l-0.86,20.33h-0.67L277,265.28c-0.05-0.25-0.4-0.25-0.45,0l-0.86,20.33h-0.67l-0.86-20.33
			c-0.05-0.25-0.4-0.25-0.45,0l-0.86,20.33h-0.67l-0.86-20.33c-0.05-0.25-0.4-0.25-0.45,0l-0.86,20.33h-0.67l-0.86-20.33
			c-0.05-0.25-0.4-0.25-0.45,0l-0.86,20.33h-0.69l-0.86-20.33c-0.05-0.25-0.4-0.25-0.45,0l-0.86,20.33h-0.67l-0.86-20.33
			c-0.05-0.25-0.4-0.25-0.45,0l-0.86,20.33h-0.67l-0.86-20.33c-0.05-0.25-0.4-0.25-0.45,0l-0.86,20.33h-0.67L257,265.28
			c-0.05-0.25-0.4-0.25-0.45,0l-0.86,20.33h-0.67l-0.86-20.33c-0.05-0.25-0.4-0.25-0.45,0l-0.86,20.33h-0.67l-0.86-20.33
			c-0.05-0.25-0.4-0.25-0.45,0l-0.86,20.33h-0.67l-0.86-20.33c-0.05-0.25-0.4-0.25-0.45,0l-0.86,20.33h-0.67l-0.86-20.33
			c-0.05-0.25-0.4-0.25-0.45,0l-0.86,20.33h-0.67l-0.86-20.33c-0.05-0.25-0.4-0.25-0.45,0l-0.86,20.33h-0.67l-0.86-20.33
			c-0.05-0.25-0.4-0.25-0.45,0l-0.86,20.33h-0.67l-0.86-20.33c-0.05-0.25-0.4-0.25-0.45,0l-0.86,20.33h-0.67l-0.86-20.33
			c-0.05-0.25-0.4-0.25-0.45,0l-0.86,20.33h-0.69l-0.86-20.33c-0.05-0.25-0.4-0.25-0.45,0l-0.86,20.33h-0.67l-0.86-20.33
			c-0.05-0.25-0.4-0.25-0.45,0l-0.86,20.33h-0.67l-0.86-20.33c-0.05-0.25-0.4-0.25-0.45,0l-0.86,20.33h-0.67l-0.86-20.33
			c-0.05-0.25-0.4-0.25-0.45,0l-0.86,20.33h-0.67l-0.86-20.33c-0.05-0.25-0.4-0.25-0.45,0l-0.86,20.33h-0.67l-0.86-20.33
			c-0.05-0.25-0.4-0.25-0.45,0l-0.86,20.33h-0.67l-0.86-20.33c-0.05-0.25-0.4-0.25-0.45,0l-0.86,20.33h-0.67l-0.86-20.33
			c-0.05-0.25-0.4-0.25-0.45,0l-0.86,20.33h-0.67l-0.86-20.33c-0.05-0.25-0.4-0.25-0.45,0l-0.86,20.33h-0.67l-0.86-20.33
			c-0.05-0.25-0.4-0.25-0.45,0l-0.86,20.33h-0.67l-0.86-20.33c-0.05-0.25-0.4-0.25-0.45,0l-0.86,20.33h-0.67l-0.86-20.33
			c-0.05-0.25-0.4-0.25-0.45,0l-0.86,20.33h-0.69l-0.86-20.33c-0.05-0.25-0.4-0.25-0.45,0l-0.86,20.33h-0.67l-0.86-20.33
			c-0.05-0.25-0.4-0.25-0.45,0l-0.86,20.33h-0.67l-0.86-20.33c-0.05-0.25-0.4-0.25-0.45,0l-0.86,20.33h-0.67l-0.86-20.33
			c-0.05-0.25-0.4-0.25-0.45,0l-0.86,20.33h-0.67l-0.86-20.33c-0.05-0.25-0.4-0.25-0.45,0l-0.86,20.33h-0.67l-0.86-20.33
			c-0.05-0.25-0.4-0.25-0.45,0l-0.86,20.33h-0.67l-0.86-20.33c-0.05-0.25-0.4-0.25-0.45,0l-0.86,20.33h-0.67l-0.86-20.33
			c-0.05-0.25-0.4-0.25-0.45,0l-0.86,20.33h-0.67l-0.86-20.33c-0.05-0.25-0.4-0.25-0.45,0l-0.86,20.33h-0.67l-0.86-20.33
			c-0.05-0.25-0.4-0.25-0.45,0L170,285.61h-0.67l-0.86-20.33c-0.05-0.25-0.4-0.25-0.45,0l-0.86,20.33h-0.67l-0.86-20.33
			c-0.05-0.25-0.4-0.25-0.45,0l-0.86,20.33h-0.69l-0.86-20.33c-0.05-0.25-0.4-0.25-0.45,0l-0.86,20.33h-0.67l-0.86-20.33
			c-0.05-0.25-0.4-0.25-0.45,0l-0.86,20.33h-0.67l-0.86-20.33c-0.05-0.25-0.4-0.25-0.45,0l-0.86,20.33h-0.67l-0.86-20.33
			c-0.05-0.25-0.4-0.25-0.45,0l-0.86,20.33h-0.67l-0.86-20.33c-0.05-0.25-0.4-0.25-0.45,0L150,285.61h-0.67l-0.86-20.33
			c-0.05-0.25-0.4-0.25-0.45,0l-0.86,20.33h-0.67l-0.86-20.33c-0.05-0.25-0.4-0.25-0.45,0l-0.86,20.33h-0.67l-0.86-20.33
			c-0.05-0.25-0.4-0.25-0.45,0l-0.86,20.33h-0.67l-0.86-20.33c-0.05-0.25-0.4-0.25-0.45,0l-0.86,20.33h-0.67l-0.86-20.33
			c-0.05-0.25-0.4-0.25-0.45,0l-0.86,20.33h-0.67l-0.86-20.33c-0.05-0.25-0.4-0.25-0.45,0l-0.86,20.33h-0.67l-0.86-20.33
			c-0.05-0.25-0.4-0.25-0.45,0l-0.86,20.33h-0.69l-0.86-20.33c-0.05-0.25-0.4-0.25-0.45,0l-0.86,20.33h-0.67l-0.86-20.33
			c-0.05-0.25-0.4-0.25-0.45,0l-0.86,20.33h-0.67l-0.86-20.33c-0.05-0.25-0.4-0.25-0.45,0l-0.86,20.33h-0.67l-0.86-20.33
			c-0.05-0.25-0.4-0.25-0.45,0l-0.86,20.33h-0.67l-0.86-20.33c-0.05-0.25-0.4-0.25-0.45,0l-0.86,20.33h-0.67l-0.86-20.33
			c-0.05-0.25-0.4-0.25-0.45,0l-0.86,20.33h-0.67l-0.86-20.33c-0.04-0.18-0.42-0.18-0.45,0l-0.46,2.21v35.37
			c0,6.82,5.53,12.35,12.35,12.35h211.17c6.82,0,12.35-5.53,12.35-12.35v-14.73V285.61z"/>
		<radialGradient id="SVGID_3_" cx="191.3643" cy="113.5964" r="31.5693" gradientUnits="userSpaceOnUse">
			<stop  offset="0.4879" style="stop-color:#FCEE21"/>
			<stop  offset="0.9614" style="stop-color:#FFFFFF"/>
		</radialGradient>
		<circle opacity="0.3" fill="url(#SVGID_3_)" cx="191.36" cy="113.6" r="31.57"/>
		<circle fill="#FCC015" cx="191.36" cy="113.6" r="14.2"/>
		<path fill="#0063B0" d="M390.58,185.82H66.14l108.1-25.78l32.61-43.87c0.79-1.14,2.46-1.16,3.28-0.04l5.84,6.72l11.16-23.59
			c0.74-1.5,2.87-1.5,3.61,0l11.16,23.59l5.84-6.72c0.82-1.12,2.49-1.1,3.28,0.04l31.06,43.66L390.58,185.82z"/>
		<path fill="#01904B" d="M390.58,185.82l-40.47-10.78c-11.22-3.21-21.75-8.46-31.07-15.48h0c-6.11-4.61-11.22-10.42-15.01-17.07
			l-12.1-21.25c-1.02-1.84-3.15-2.84-5.29-2.34c-1.33,0.31-2.44,1.23-3.12,2.42l-10.81,19.11l-1.08-1.87
			c-1.8-3.13-6.27-3.21-8.19-0.15l-8.71,13.94l-4.63-5.33c-1.89-2.17-5.24-2.19-7.16-0.05c-10.87,12.08-26.36,18.99-42.62,18.99
			h-2.25L66.14,185.82H390.58z"/>
		<path fill="#89CE84" d="M355.12,181.34l-26.64-6.72c-17.13-5.74-35.07-8.66-53.13-8.66h-19.49c-16.26,0-31.76-6.91-42.63-19h0
			c-1.92-2.13-5.27-2.1-7.15,0.06l-4.63,5.33l-8.71-13.94c-1.91-3.06-6.39-2.97-8.19,0.15l-1.08,1.87l-10.81-19.11
			c-0.67-1.19-1.78-2.11-3.12-2.42c-2.14-0.5-4.27,0.5-5.29,2.34l-13.01,22.85c-3.83,6.73-8.85,12.72-14.8,17.67h0
			c-9.47,7.89-20.29,13.03-32.44,15.11l0,0l-37.87,8.95h324.44L355.12,181.34z"/>
		<path fill="#0063B0" d="M353.66,182.4h-0.79c-9.56,0-19.01-1.84-27.99-5.12c-7.52-2.75-17.56-4.33-28.58-4.33s-124.36,0-135.38,0
			c-11.02,0-21.06,1.68-28.58,4.44c-8.98,3.29-18.42,5.12-27.99,5.12h-0.35l-37.87,3.32h324.44L353.66,182.4z"/>
		<path fill="#ACE8EA" d="M207.17,122.55c0.1,0.93,0.85,1.69,1.78,1.69h0.09c1.11,0,2-0.89,2-1.99v-0.68c0-0.67,0.55-1.22,1.22-1.22
			l1.88,0.4l-4.03-4.66c-0.8-1.1-2.45-1.08-3.23,0.04l-5.67,7.6l3.81-2.37c0.91-0.41,2,0.15,2.13,1.14
			C207.17,122.52,207.17,122.53,207.17,122.55z"/>
		<path fill="#ACE8EA" d="M225,113.22c0,1.81,1.47,3.9,3.28,3.9s3.28-2.09,3.28-3.9c0-1.56,1.27-2.83,2.83-2.83l1.95,0.72
			l-5.63-11.88c-0.73-1.48-2.83-1.48-3.56,0l-6.26,13.17l2.51-0.78C224.29,111.62,225,112.34,225,113.22z"/>
		<path fill="#ACE8EA" d="M246.22,125.38c0.91,0,1.64-0.73,1.64-1.64v-0.98c0-0.88,0.71-1.59,1.59-1.59c0.88,0,1.59,0.71,1.59,1.59
			v0.62c0,0.67,0.54,1.22,1.22,1.22l5.12,0.53l-6.39-9.07c-0.78-1.12-2.43-1.14-3.23-0.04l-3.65,4.28l0.48,3.45
			C244.58,124.65,245.32,125.38,246.22,125.38z"/>
		<path fill="#F4CDBA" d="M164.47,127.51v-0.8c0-1.04,0.78-1.97,1.81-2.02c1.1-0.06,2.02,0.82,2.02,1.91v8.94
			c0,1.4,1.14,2.54,2.54,2.54l0,0c1.34,0,2.45-1.04,2.53-2.38l0.24-3.81c0.07-1.11,1.07-1.92,2.17-1.77l2.02,0.27l-5.24-9.26
			c-0.67-1.18-1.78-2.09-3.1-2.39c-2.1-0.48-4.18,0.51-5.18,2.31l-4.77,8.38h3.05C163.62,129.42,164.47,128.57,164.47,127.51z"/>
		<path fill="#F4CDBA" d="M187.08,142.18l0.03,3.79c0.01,1.05,0.86,1.9,1.91,1.9c0.91,0,1.7-0.65,1.88-1.54l0.24-4.02
			c0.18-0.9,0.82-1.85,2.41-1.44h0.69l-1.61-2.58c-1.88-3.01-6.3-2.93-8.07,0.15l-1.06,1.85h1.66
			C186.22,140.28,187.07,141.13,187.08,142.18z"/>
		<path fill="#F4CDBA" d="M291.73,127.38v-0.8c0-1.04-0.78-1.97-1.81-2.02c-1.1-0.06-2.02,0.82-2.02,1.91v8.94
			c0,1.4-1.14,2.54-2.54,2.54l0,0c-1.34,0-2.45-1.04-2.53-2.38l-0.24-3.81c-0.07-1.11-1.07-1.92-2.17-1.77l-2.02,0.27l5.24-9.26
			c0.67-1.18,1.78-2.09,3.1-2.39c2.1-0.48,4.18,0.51,5.18,2.31l4.77,8.38h-3.05C292.58,129.29,291.73,128.44,291.73,127.38z"/>
		<path fill="#F4CDBA" d="M269.01,142.18l-0.03,3.79c-0.01,1.05-0.86,1.9-1.91,1.9c-0.91,0-1.7-0.65-1.88-1.54l-0.15-4.16
			c-0.18-0.9-1.58-1.3-2.5-1.3h-0.69l1.61-2.58c1.88-3.01,6.3-2.93,8.07,0.15l1.06,1.85h-1.66
			C269.87,140.28,269.02,141.13,269.01,142.18z"/>
		<g>
			<path fill="#9FE054" d="M166.9,172.42l-2.88-2.95c-0.18-0.18-0.05-0.49,0.21-0.49h1.5c0.26,0,0.39-0.31,0.21-0.49l-2.98-3.06
				c-0.18-0.18-0.05-0.49,0.21-0.49h0.98c0.24,0,0.38-0.29,0.22-0.47l-3.53-4.25c-0.12-0.14-0.33-0.14-0.45,0l-3.53,4.25
				c-0.16,0.19-0.02,0.47,0.22,0.47h0.98c0.26,0,0.39,0.31,0.21,0.49l-2.98,3.06c-0.18,0.18-0.05,0.49,0.21,0.49h1.5
				c0.26,0,0.39,0.31,0.21,0.49l-2.88,2.95c-0.18,0.18-0.05,0.49,0.21,0.49h12.15C166.95,172.92,167.08,172.61,166.9,172.42z"/>
			<path fill="#9FE054" d="M158.57,173.42l-2.67-2.74c-0.17-0.17-0.05-0.46,0.19-0.46h1.39c0.24,0,0.36-0.28,0.19-0.45l-2.76-2.84
				c-0.17-0.17-0.04-0.45,0.19-0.45h0.91c0.23,0,0.35-0.26,0.21-0.44l-3.27-3.94c-0.11-0.13-0.31-0.13-0.41,0l-3.27,3.94
				c-0.14,0.17-0.02,0.44,0.21,0.44h0.91c0.24,0,0.36,0.28,0.19,0.45l-2.76,2.84c-0.16,0.17-0.04,0.45,0.19,0.45h1.39
				c0.24,0,0.36,0.29,0.19,0.46l-2.67,2.74c-0.17,0.17-0.05,0.45,0.19,0.45h11.26C158.61,173.88,158.73,173.59,158.57,173.42z"/>
			<path fill="#01904B" d="M158.57,173.42l-2.67-2.74c-0.17-0.17-0.05-0.45,0.19-0.45h1.39c0.24,0,0.36-0.28,0.19-0.45l-2.76-2.84
				c-0.17-0.17-0.04-0.45,0.19-0.45h0.91c0.23,0,0.35-0.26,0.21-0.44l-3.27-3.94c-0.05-0.06-0.12-0.09-0.19-0.09v11.87h5.61
				C158.61,173.88,158.73,173.59,158.57,173.42z"/>
			<path fill="#01904B" d="M166.9,172.42l-2.88-2.95c-0.18-0.18-0.05-0.49,0.21-0.49h1.5c0.26,0,0.39-0.31,0.21-0.49l-2.98-3.06
				c-0.18-0.18-0.05-0.49,0.21-0.49h0.98c0.24,0,0.38-0.29,0.22-0.47l-3.53-4.25c-0.09-0.11-0.23-0.13-0.34-0.08v12.78h6.2
				C166.95,172.92,167.08,172.61,166.9,172.42z"/>
			<path fill="#9FE054" d="M174.27,173.42l-2.67-2.74c-0.17-0.17-0.05-0.46,0.19-0.46h1.39c0.24,0,0.36-0.28,0.19-0.45l-2.76-2.84
				c-0.17-0.17-0.04-0.45,0.19-0.45h0.91c0.23,0,0.35-0.26,0.21-0.44l-3.27-3.94c-0.11-0.13-0.31-0.13-0.41,0l-3.27,3.94
				c-0.14,0.17-0.02,0.44,0.21,0.44h0.91c0.24,0,0.36,0.28,0.19,0.45l-2.76,2.84c-0.17,0.17-0.04,0.45,0.19,0.45h1.39
				c0.24,0,0.36,0.29,0.19,0.46l-2.67,2.74c-0.17,0.17-0.05,0.46,0.19,0.46h11.26C174.31,173.88,174.43,173.59,174.27,173.42z"/>
			<path fill="#01904B" d="M174.27,173.42l-2.67-2.74c-0.17-0.17-0.05-0.45,0.19-0.45h1.39c0.24,0,0.36-0.28,0.19-0.45l-2.76-2.84
				c-0.17-0.17-0.04-0.45,0.19-0.45h0.91c0.23,0,0.35-0.26,0.21-0.44l-3.27-3.94c-0.05-0.06-0.13-0.1-0.21-0.1v11.87h5.63
				C174.31,173.88,174.43,173.59,174.27,173.42z"/>
		</g>
		<g>
			<path fill="#9FE054" d="M359.89,186.31l-2.88-2.95c-0.18-0.18-0.05-0.49,0.21-0.49h1.5c0.26,0,0.39-0.31,0.21-0.49l-2.98-3.06
				c-0.18-0.18-0.05-0.49,0.21-0.49h0.98c0.24,0,0.38-0.29,0.22-0.47l-3.53-4.25c-0.12-0.14-0.33-0.14-0.44,0l-3.53,4.25
				c-0.16,0.19-0.02,0.47,0.22,0.47h0.98c0.26,0,0.39,0.31,0.21,0.49l-2.98,3.06c-0.18,0.18-0.05,0.49,0.21,0.49h1.5
				c0.26,0,0.39,0.31,0.21,0.49l-2.88,2.95c-0.18,0.18-0.05,0.49,0.21,0.49h12.15C359.93,186.8,360.06,186.49,359.89,186.31z"/>
			<path fill="#9FE054" d="M351.55,187.31l-2.67-2.74c-0.17-0.17-0.05-0.46,0.19-0.46h1.39c0.24,0,0.36-0.28,0.19-0.45l-2.76-2.84
				c-0.16-0.17-0.04-0.45,0.19-0.45H349c0.23,0,0.35-0.26,0.21-0.44l-3.27-3.94c-0.11-0.13-0.31-0.13-0.41,0l-3.27,3.94
				c-0.14,0.17-0.02,0.44,0.21,0.44h0.91c0.24,0,0.36,0.28,0.19,0.45l-2.76,2.84c-0.17,0.17-0.04,0.45,0.19,0.45h1.39
				c0.24,0,0.36,0.29,0.19,0.46l-2.67,2.74c-0.17,0.17-0.05,0.45,0.19,0.45h11.26C351.6,187.76,351.72,187.48,351.55,187.31z"/>
			<path fill="#01904B" d="M351.55,187.31l-2.67-2.74c-0.17-0.17-0.05-0.45,0.19-0.45h1.39c0.24,0,0.36-0.28,0.19-0.45l-2.76-2.84
				c-0.16-0.17-0.04-0.45,0.19-0.45H349c0.23,0,0.35-0.26,0.21-0.44l-3.27-3.94c-0.05-0.06-0.12-0.09-0.19-0.09v11.87h5.61
				C351.6,187.76,351.72,187.48,351.55,187.31z"/>
			<path fill="#01904B" d="M359.89,186.31l-2.88-2.95c-0.18-0.18-0.05-0.49,0.21-0.49h1.5c0.26,0,0.39-0.31,0.21-0.49l-2.98-3.06
				c-0.18-0.18-0.05-0.49,0.21-0.49h0.98c0.24,0,0.38-0.29,0.22-0.47l-3.53-4.25c-0.09-0.11-0.23-0.13-0.34-0.08v12.78h6.2
				C359.93,186.8,360.06,186.49,359.89,186.31z"/>
			<path fill="#9FE054" d="M367.25,187.31l-2.67-2.74c-0.17-0.17-0.05-0.46,0.19-0.46h1.39c0.24,0,0.36-0.28,0.19-0.45l-2.76-2.84
				c-0.17-0.17-0.04-0.45,0.19-0.45h0.91c0.23,0,0.35-0.26,0.21-0.44l-3.27-3.94c-0.11-0.13-0.31-0.13-0.41,0l-3.27,3.94
				c-0.14,0.17-0.02,0.44,0.21,0.44h0.91c0.24,0,0.36,0.28,0.19,0.45l-2.76,2.84c-0.17,0.17-0.04,0.45,0.19,0.45h1.39
				c0.24,0,0.36,0.29,0.19,0.46l-2.67,2.74c-0.17,0.17-0.05,0.46,0.19,0.46h11.26C367.3,187.76,367.42,187.48,367.25,187.31z"/>
			<path fill="#01904B" d="M367.25,187.31l-2.67-2.74c-0.17-0.17-0.05-0.45,0.19-0.45h1.39c0.24,0,0.36-0.28,0.19-0.45l-2.76-2.84
				c-0.17-0.17-0.04-0.45,0.19-0.45h0.91c0.23,0,0.35-0.26,0.21-0.44l-3.27-3.94c-0.05-0.06-0.13-0.1-0.21-0.1v11.87h5.63
				C367.3,187.76,367.42,187.48,367.25,187.31z"/>
		</g>
		<g>
			<path fill="#9FE054" d="M285.82,185.88l-2.88-2.95c-0.18-0.18-0.05-0.49,0.21-0.49h1.5c0.26,0,0.39-0.31,0.21-0.49l-2.98-3.06
				c-0.18-0.18-0.05-0.49,0.21-0.49h0.98c0.24,0,0.38-0.29,0.22-0.47l-3.53-4.25c-0.12-0.14-0.33-0.14-0.45,0l-3.53,4.25
				c-0.16,0.19-0.02,0.47,0.22,0.47H277c0.26,0,0.39,0.31,0.21,0.49l-2.98,3.06c-0.18,0.18-0.05,0.49,0.21,0.49h1.5
				c0.26,0,0.39,0.31,0.21,0.49l-2.88,2.95c-0.18,0.18-0.05,0.49,0.21,0.49h12.15C285.87,186.37,286,186.07,285.82,185.88z"/>
			<path fill="#9FE054" d="M277.49,186.88l-2.67-2.74c-0.17-0.17-0.05-0.46,0.19-0.46h1.39c0.24,0,0.36-0.28,0.19-0.45l-2.76-2.84
				c-0.17-0.17-0.04-0.45,0.19-0.45h0.91c0.23,0,0.35-0.26,0.21-0.44l-3.27-3.94c-0.11-0.13-0.31-0.13-0.41,0l-3.27,3.94
				c-0.14,0.17-0.02,0.44,0.21,0.44h0.91c0.24,0,0.36,0.28,0.19,0.45l-2.76,2.84c-0.16,0.17-0.04,0.45,0.19,0.45h1.39
				c0.24,0,0.36,0.29,0.19,0.46l-2.67,2.74c-0.17,0.17-0.05,0.45,0.19,0.45h11.26C277.53,187.34,277.65,187.05,277.49,186.88z"/>
			<path fill="#01904B" d="M277.49,186.88l-2.67-2.74c-0.17-0.17-0.05-0.45,0.19-0.45h1.39c0.24,0,0.36-0.28,0.19-0.45l-2.76-2.84
				c-0.17-0.17-0.04-0.45,0.19-0.45h0.91c0.23,0,0.35-0.26,0.21-0.44l-3.27-3.94c-0.05-0.06-0.12-0.09-0.19-0.09v11.87h5.61
				C277.53,187.34,277.65,187.05,277.49,186.88z"/>
			<path fill="#01904B" d="M285.82,185.88l-2.88-2.95c-0.18-0.18-0.05-0.49,0.21-0.49h1.5c0.26,0,0.39-0.31,0.21-0.49l-2.98-3.06
				c-0.18-0.18-0.05-0.49,0.21-0.49h0.98c0.24,0,0.38-0.29,0.22-0.47l-3.53-4.25c-0.09-0.11-0.23-0.13-0.34-0.08v12.78h6.2
				C285.87,186.37,286,186.07,285.82,185.88z"/>
			<path fill="#9FE054" d="M293.19,186.88l-2.67-2.74c-0.17-0.17-0.05-0.46,0.19-0.46h1.39c0.24,0,0.36-0.28,0.19-0.45l-2.76-2.84
				c-0.17-0.17-0.04-0.45,0.19-0.45h0.91c0.23,0,0.35-0.26,0.21-0.44l-3.27-3.94c-0.11-0.13-0.31-0.13-0.41,0l-3.27,3.94
				c-0.14,0.17-0.02,0.44,0.21,0.44h0.91c0.24,0,0.36,0.28,0.19,0.45l-2.76,2.84c-0.17,0.17-0.04,0.45,0.19,0.45h1.39
				c0.24,0,0.36,0.29,0.19,0.46l-2.67,2.74c-0.17,0.17-0.05,0.45,0.19,0.45H293C293.23,187.34,293.35,187.05,293.19,186.88z"/>
			<path fill="#01904B" d="M293.19,186.88l-2.67-2.74c-0.17-0.17-0.05-0.45,0.19-0.45h1.39c0.24,0,0.36-0.28,0.19-0.45l-2.76-2.84
				c-0.17-0.17-0.04-0.45,0.19-0.45h0.91c0.23,0,0.35-0.26,0.21-0.44l-3.27-3.94c-0.05-0.06-0.13-0.1-0.21-0.1v11.87H293
				C293.23,187.34,293.35,187.05,293.19,186.88z"/>
		</g>
		<g>
			<path fill="#FFC289" d="M173.04,239.56h34.66c-1.15,5.89-4.65,10.8-9.36,13.45v7.82c0,0.83-0.5,1.62-1.29,1.87
				c-1.31,0.41-2.52-0.56-2.52-1.81v-6.32c-0.74,0.2-1.49,0.34-2.26,0.43v5.83c0,0.83-0.5,1.62-1.29,1.87
				c-1.31,0.41-2.52-0.56-2.52-1.81V255c-0.77-0.09-1.52-0.24-2.26-0.43v6.26c0,0.83-0.5,1.62-1.29,1.87
				c-1.31,0.41-2.52-0.56-2.52-1.81v-7.88C177.69,250.36,174.18,245.45,173.04,239.56z"/>
			<path fill="#683101" d="M285.34,202.58L285.34,202.58c4.37-0.59,8.71,1.29,11.25,4.9l0,0c2.87,4.07,3.05,9.45,0.46,13.7
				l-14.71,24.12l-4.84,18.86l-1.12,14.23l2.54,7.36h-9.49l-0.14-7.62l-0.38-14.26l1.1-16.56c0.11-2.13-0.19-4.26-0.9-6.27v0
				c-1.29-3.64-1.05-7.65,0.65-11.13l2.52-5.15c1.52-3.73,2.49-7.66,2.9-11.66l0,0C275.73,207.66,279.93,203.31,285.34,202.58z"/>
			<path fill="#DF7D05" d="M154.4,255.8L154.4,255.8c-1.16-1.13-1.37-2.91-0.51-4.27l2.96-4.69c1.78-2.83,2.77-6.09,2.87-9.44
				l0.37-13.52l0.19-18.28c-0.28-3.96-0.24-7.95,0.12-11.93v0v0c0.06-0.63,0.12-1.25,0.2-1.88c0.58-4.92,4.51-8.77,9.42-9.36
				c11.82-1.42,25.1-1.19,36.04,0.59l12.45,2.02c6.52,1.06,13.17,1.17,19.72,0.34l0.24-0.03c11.64-1.49,23.44-1.16,34.99,0.97
				l9.62,1.77c7.9,1.46,16.05,0.07,23.03-3.91l2.91,34.03l-3.29,1.29c-2.58,1.01-4.83,2.73-6.5,4.94c-3.14,4.16-4.45,4.87-6.19,9.8
				c-2.58,7.35-8.95,12.72-16.63,14.03c-4.75,0.81-9.62,0.2-13.99-1.71c-8.68-3.8-18.46-3.92-27.54-1.24
				c-9.53,2.81-19.49,2.56-28.78-0.82l-12.33-4.93h-19.92l-9.24,19.52c-1.16,2.44-1.76,5.12-1.76,7.82v11.56l3.27,7.62h-11.83
				l1.4-7.62l-0.14-19.97C155.54,257.47,155.13,256.51,154.4,255.8z"/>
			<path fill="#A95A34" d="M271.03,202.91L271.03,202.91c4.37-0.59,8.71,1.29,11.25,4.9l0,0c2.87,4.07,3.05,9.45,0.46,13.7
				l-14.71,24.12l-4.84,18.85l-1.12,14.23l2.54,7.36h-9.49l-0.14-7.62l-0.38-14.26l1.1-16.56c0.11-2.13-0.19-4.26-0.9-6.27l0,0
				c-1.29-3.64-1.05-7.65,0.65-11.13l2.52-5.15c1.52-3.73,2.49-7.66,2.9-11.66l0,0C261.41,207.99,265.62,203.64,271.03,202.91z"/>
			<path fill="#A95A34" d="M206.9,195.53L206.9,195.53c0.52,4.8-0.11,9.65-1.85,14.16l-9.12,23.65c-2.55,6.62-4.41,13.49-5.53,20.5
				l-0.78,4.86l2.31,19.76l4.2,7.62h-11.2l-0.78-7.62l-4.64-16.7c-0.31-0.93-1.09-1.62-2.05-1.81l0,0
				c-0.86-0.17-1.43-1.01-1.26-1.88l1-5.19c0.77-4.01,0.3-8.17-1.36-11.9l-3.89-8.76c-4.8-10.79-7.66-22.34-8.45-34.12l0,0
				c-0.36-5.36,3.89-9.91,9.26-9.91h25.94C202.92,188.18,206.45,191.35,206.9,195.53z"/>
			<g>
				<path d="M162.93,254.02l0.61-7.42c0.06-0.74,0.07-1.49,0.03-2.23l-2.67-45.77c-0.15-2.65,0.81-4.52,2.38-6.29
					c1.16-1.31,1.51-3.16,0.85-4.78l-0.71-1.76c-3.49,3.25-6.52,8.29-6.24,13.05l2.67,45.77c0.03,0.57,0.03,1.14-0.02,1.71
					l-0.61,7.42L162.93,254.02z"/>
			</g>
			<ellipse fill="#683101" cx="185.23" cy="206.42" rx="6.33" ry="9.48"/>
			<path fill="#683101" d="M170.92,196.3c0.26,0,0.5,0.05,0.74,0.12c0-0.04-0.01-0.08-0.01-0.12c0-1.81,1.39-3.27,3.11-3.27
				c1.72,0,3.11,1.47,3.11,3.27s-1.39,3.27-3.11,3.27c-0.31,0-0.61-0.06-0.9-0.15c0.04,0.27,0.07,0.54,0.07,0.82
				c0,2.18-1.35,3.94-3.01,3.94c-1.66,0-3.01-1.76-3.01-3.94C167.91,198.06,169.26,196.3,170.92,196.3z"/>
			<path fill="#A95A34" d="M259.71,196.96c0.49,0,0.96,0.17,1.37,0.47c0.18-1.83,1.72-3.26,3.59-3.26c2,0,3.61,1.62,3.61,3.62
				c0,2-1.62,3.62-3.61,3.62c-0.73,0-1.4-0.22-1.97-0.59c0.01,0.14,0.02,0.29,0.02,0.43c0,2.37-1.35,4.28-3.01,4.28
				c-1.66,0-3.01-1.92-3.01-4.28C256.7,198.88,258.05,196.96,259.71,196.96z"/>
			<ellipse fill="#A95A34" cx="211.56" cy="214.63" rx="3.86" ry="5.65"/>
			<ellipse fill="#683101" cx="221.26" cy="198.6" rx="3.11" ry="3.35"/>
			<ellipse fill="#A95A34" cx="240.01" cy="218.77" rx="2.39" ry="2.86"/>
			<path fill="#683101" d="M288.77,235.11l1.17-4.12c0.44-1.56-1.47-2.7-2.63-1.56l-2.59,2.54c-1.09,1.07-2.78,1.23-4.05,0.39
				c-1.2-0.79-1.73-2.28-1.31-3.65l1.62-5.32c0.42-1.38-0.81-2.7-2.21-2.38l-9.87,2.25c-1.64,0.32-3.16-0.93-3.16-2.6
				c0-1.13,0.71-2.13,1.77-2.5l7.93-2.78c1.29-0.45,2.2-1.62,2.31-2.99c0.08-0.92-0.22-1.84-0.82-2.54l-4.35-5.12
				c-0.94-1.11-1.15-2.66-0.54-3.98c0.61-1.31,1.92-2.14,3.37-2.14h3.1c2.01,0,3.76-1.36,4.26-3.3l1.81-6.98
				c7.42,1.03,14.99-0.42,21.52-4.15l2.91,34.03l-3.29,1.29c-2.58,1.01-4.83,2.73-6.5,4.94c-3.14,4.16-4.45,4.87-6.19,9.8
				c-0.76,2.16-1.85,4.13-3.19,5.9C288.71,238.78,288.26,236.91,288.77,235.11z"/>
			<g>
				<path fill="#683101" d="M295.82,176.38c0.53,0,0.78,0.38,1.01,0.87c0.93,1.89,3.24,4.48,5.22,5.2l4.69,1.71l-1.42,4.85
					l-3.46-1.76c-3.16-1.61-5.91-5.16-6.55-9.27C295.3,177.09,295.34,176.62,295.82,176.38z"/>
				<path fill="#683101" d="M332.23,176.38c-0.53,0-0.78,0.38-1.01,0.87c-0.93,1.89-3.24,4.48-5.22,5.2l-4.69,1.71l1.42,4.85
					l3.46-1.76c3.16-1.61,5.91-5.16,6.55-9.27C332.75,177.09,332.71,176.62,332.23,176.38z"/>
				<g>
					<path fill="#DF7D05" d="M292.55,184.1l0.08,0.02c2.62,0.56,5.03,1.85,6.95,3.71l0,0c0.83,0.86,1.88,1.48,3.04,1.78l1.55,0.41
						l-0.97,3.64l-6.22-0.97c-3.39,1-7.04,0.47-10-1.44l0,0c-1.45-0.93-4.65-3.78-5.05-5.46l0,0l2.29-0.94
						C286.85,183.76,289.76,183.5,292.55,184.1z"/>
					<path fill="#A95A34" d="M296.91,192.15l0.33,0.44l-0.28,0.1c-3.39,1-7.04,0.47-10-1.44l0,0c-1.45-0.93-4.65-3.78-5.05-5.46
						c1.68-0.19,4.24,0.15,6.7,0.79C291.93,187.44,294.84,189.42,296.91,192.15z"/>
				</g>
				<g>
					<path fill="#DF7D05" d="M334.95,184.1l-0.08,0.02c-2.62,0.56-5.03,1.85-6.95,3.71l0,0c-0.83,0.86-1.88,1.48-3.04,1.78
						l-1.55,0.41l0.97,3.64l6.22-0.97c3.39,1,7.04,0.47,10-1.44l0,0c1.45-0.93,4.65-3.78,5.05-5.46l0,0l-2.29-0.94
						C340.64,183.76,337.74,183.5,334.95,184.1z"/>
					<path fill="#683101" d="M330.58,192.15l-0.33,0.44l0.28,0.1c3.39,1,7.04,0.47,10-1.44l0,0c1.45-0.93,4.65-3.78,5.05-5.46
						c-1.68-0.19-4.24,0.15-6.7,0.79C335.56,187.44,332.65,189.42,330.58,192.15z"/>
				</g>
				<path fill="#A95A34" d="M326.92,199.78l-1.43,5.58c-0.56,1.94-1.36,3.79-2.24,5.6c-0.99,2.02-1.72,4.1-2.06,6.42l-0.57,6.49
					h-13.65l-0.87-6.6c-0.4-2.26-1.14-4.52-2.15-6.62c-0.9-1.87-1.69-3.78-2.22-5.78l-1.15-5.09H326.92z"/>
				<path fill="#DF7D05" d="M311.32,183.1h2.42h2.42c1.85,0.17,3.61,0.54,5.22,1.08c3.54,1.17,5.85,4.58,5.85,8.31v3.98
					c0,0.55-0.02,1.1-0.05,1.65c-0.07,1.14-0.28,2.25-0.57,3.34c-0.64,2.34-3.15,4.55-4.35,6.58c-1.31,2.23-2.15,4.8-2.43,7.5
					l0.17,5.92h-12.52l0.17-5.92c-0.28-2.7-1.12-5.27-2.43-7.5c-1.2-2.03-3.71-4.25-4.35-6.58c-0.3-1.09-0.5-2.2-0.57-3.34
					c-0.03-0.55-0.05-1.1-0.05-1.65v-3.98c0-3.73,2.31-7.14,5.85-8.31C307.71,183.64,309.47,183.27,311.32,183.1z"/>
				<path fill="#A95A34" d="M310.09,204.09l-0.08-0.4c-0.78-4.1-3.55-7.55-7.38-9.19l-2.38-1.02v-0.99c0-3.73,2.31-7.14,5.85-8.31
					c1.61-0.53,3.36-0.9,5.22-1.08h2.42h2.42c1.85,0.17,3.61,0.54,5.22,1.08c3.54,1.17,5.85,4.58,5.85,8.31v0.99l-2.38,1.02
					c-3.84,1.64-6.61,5.09-7.38,9.19l-0.08,0.4c-0.46,2.42-0.64,4.89-0.54,7.36l0.4,10.01h-7.01l0.4-10.01
					C310.73,208.98,310.55,206.51,310.09,204.09z"/>
				<g>
					<path d="M306.89,200.82c1.11,1.22,0.77,3.34,0.77,3.34s-2.14,0.13-3.25-1.1c-1.11-1.23-0.77-3.34-0.77-3.34
						S305.78,199.59,306.89,200.82z"/>
					<circle fill="#40C7DD" cx="305.65" cy="201.94" r="0.89"/>
				</g>
				<g>
					<path d="M320.61,200.82c-1.11,1.22-0.77,3.34-0.77,3.34s2.14,0.13,3.25-1.1c1.11-1.23,0.77-3.34,0.77-3.34
						S321.72,199.59,320.61,200.82z"/>
					<circle fill="#40C7DD" cx="321.85" cy="201.94" r="0.89"/>
				</g>
				<path opacity="0.2" fill="#683101" d="M310.63,211.45c0.1-2.47-0.08-4.93-0.54-7.36l-0.08-0.4c-0.78-4.1-3.55-7.55-7.38-9.19
					l-2.38-1.02v-0.99c0-3.73,2.31-7.14,5.85-8.31c1.61-0.53,3.36-0.9,5.22-1.08h2.42v38.35h-3.51L310.63,211.45z"/>
				<path d="M316.69,226.54h-5.82c-0.65,0-1.28-0.13-1.86-0.37c-1.26-0.52-2.09-1.75-2.22-3.1l-0.19-2.03h14.36l-0.19,2.06
					c-0.11,1.2-0.76,2.34-1.83,2.9C318.26,226.34,317.49,226.54,316.69,226.54z"/>
				<path fill="#683101" d="M311.59,215.22c1.4,0.4,2.95,0.42,4.35,0.03c1.77-0.5,3.76,0.11,4.77,1.65
					c0.51,0.77,0.79,1.71,0.73,2.72c-0.13,2.43-2.31,4.26-4.75,4.26h-5.82c-2.44,0-4.62-1.82-4.75-4.26
					c-0.06-1.2,0.35-2.31,1.06-3.15C308.25,215.22,310.01,214.78,311.59,215.22z"/>
				<path d="M317,222.36L317,222.36c-0.66-0.23-0.92-1.03-0.52-1.61l0.34-0.49c0.11-0.16,0.17-0.34,0.19-0.53l0.05-0.6
					c0.05-0.7,0.75-1.16,1.41-0.92l0,0c0.45,0.16,0.74,0.6,0.7,1.08l-0.02,0.23c-0.06,0.81-0.34,1.59-0.8,2.26l-0.13,0.19
					C317.95,222.36,317.45,222.52,317,222.36z"/>
				<path d="M310.48,222.36L310.48,222.36c0.66-0.23,0.92-1.03,0.52-1.61l-0.34-0.49c-0.11-0.16-0.17-0.34-0.19-0.53l-0.05-0.6
					c-0.05-0.7-0.75-1.16-1.41-0.92l0,0c-0.45,0.16-0.74,0.6-0.7,1.08l0.02,0.23c0.06,0.81,0.34,1.59,0.8,2.26l0.13,0.19
					C309.53,222.36,310.03,222.52,310.48,222.36z"/>
				<path fill="#683101" d="M305.46,186.07l3.74-0.94l0.34,2.36l2.4-2.29l1.8,2.98l1.8-2.98l2.4,2.29l0.34-2.36l3.74,0.94l0,0
					c-1.8-2.14-4.45-3.37-7.25-3.37h-2.06C309.92,182.7,307.26,183.93,305.46,186.07L305.46,186.07z"/>
				<path fill="#DF7D05" d="M306.74,184.85l3.17-0.8l0.28,2l2.03-1.94l1.52,2.52l1.52-2.52l2.03,1.94l0.28-2l3.17,0.8l0,0
					c-1.52-1.81-3.77-2.85-6.13-2.85h-1.74C310.51,182,308.26,183.04,306.74,184.85L306.74,184.85z"/>
				<path fill="#683101" d="M309.09,183.05l2.1-0.53l0.19,1.33l1.35-1.29l1.01,1.67l1.01-1.67l1.35,1.29l0.19-1.33l2.1,0.53l0,0
					c-1.01-1.2-2.5-1.9-4.07-1.9h-1.16C311.59,181.16,310.1,181.85,309.09,183.05L309.09,183.05z"/>
			</g>
			<path fill="#683101" d="M239.95,187.7c0.64-0.18,1.32-0.28,2.02-0.28c3.9,0,7.05,3.02,7.05,6.75c0,2.96-2,5.48-4.78,6.38
				c0.88,1.36,1.4,3.01,1.4,4.8c0,4.64-3.51,8.4-7.83,8.4c-0.85,0-1.67-0.15-2.44-0.42c0.08,0.52,0.12,1.06,0.12,1.61
				c0,4.94-3.19,8.94-7.12,8.94c-3.93,0-7.12-4-7.12-8.94c0-4.94,3.19-8.94,7.12-8.94c0.57,0,1.13,0.09,1.66,0.25
				c-0.03-0.3-0.05-0.6-0.05-0.91c0-3.85,2.42-7.09,5.71-8.08c-0.31-0.57-0.54-1.19-0.66-1.84c-1.17,0.63-2.47,1-3.86,1
				c-4.87,0-8.82-4.38-8.82-9.78c0-0.37,0.02-0.73,0.06-1.09c5.25,0.55,10.56,0.5,15.81-0.17l0.24-0.03
				c0.47-0.06,0.95-0.11,1.42-0.17c0.06,0.48,0.11,0.96,0.11,1.46C240.01,187,239.99,187.35,239.95,187.7z"/>
			<path d="M163.19,250.83l0.72,4.22c0.45,2.65,0.25,5.37-0.59,7.92l-0.65,1.98c-0.77,2.35-0.71,4.88,0.17,7.19l0,0l-0.48-0.31
				c-2.42-1.54-4.08-4.02-4.58-6.85v0c-0.76-4.28-0.38-8.69,1.11-12.77l0.57-1.55L163.19,250.83z"/>
		</g>
		<g>
			<circle fill="#FFFFFF" cx="125.12" cy="262.21" r="7.47"/>
			<path fill="#01904B" d="M127.66,262.21c0-1.41-1.14-2.54-2.54-2.54c-1.41,0-2.54,1.14-2.54,2.54c0,1.03,0.62,1.91,1.5,2.31v21.73
				h2.09v-21.73C127.04,264.12,127.66,263.24,127.66,262.21z"/>
		</g>
		<g>
			<circle fill="#FFFFFF" cx="146.22" cy="262.21" r="7.47"/>
			<path fill="#01904B" d="M148.77,262.21c0-1.41-1.14-2.54-2.55-2.54c-1.41,0-2.54,1.14-2.54,2.54c0,1.03,0.62,1.91,1.5,2.31v21.73
				h2.09v-21.73C148.15,264.12,148.77,263.24,148.77,262.21z"/>
		</g>
		<g>
			<circle fill="#FFFFFF" cx="299.6" cy="262.38" r="7.47"/>
			<path fill="#01904B" d="M302.15,262.38c0-1.41-1.14-2.55-2.54-2.55c-1.41,0-2.55,1.14-2.55,2.55c0,1.03,0.62,1.91,1.5,2.31v21.73
				h2.09v-21.73C301.53,264.29,302.15,263.41,302.15,262.38z"/>
		</g>
		<g>
			<g>
				<path fill="#01904B" d="M225.82,274.51c0.33-0.05,0.33-0.52,0-0.57l-0.52-0.08c-0.28-0.04-0.34-0.42-0.09-0.54l0.47-0.24
					c0.3-0.15,0.15-0.6-0.18-0.54l-0.52,0.08c-0.28,0.05-0.45-0.29-0.25-0.49l0.38-0.37c0.23-0.23-0.04-0.61-0.34-0.46l-0.47,0.24
					c-0.25,0.13-0.52-0.14-0.39-0.39l0.24-0.47c0.15-0.29-0.23-0.57-0.46-0.34l-0.37,0.38c-0.2,0.2-0.54,0.03-0.49-0.25l0.08-0.52
					c0.05-0.33-0.39-0.47-0.54-0.18l-0.24,0.47c-0.13,0.25-0.5,0.19-0.54-0.09l-0.08-0.52c-0.05-0.33-0.52-0.33-0.57,0l-0.08,0.52
					c-0.04,0.28-0.42,0.34-0.54,0.09l-0.24-0.47c-0.15-0.3-0.6-0.15-0.54,0.18l0.08,0.52c0.05,0.28-0.29,0.45-0.49,0.25l-0.37-0.38
					c-0.23-0.23-0.61,0.04-0.46,0.34l0.24,0.47c0.13,0.25-0.14,0.52-0.39,0.39l-0.47-0.24c-0.29-0.15-0.57,0.23-0.34,0.46l0.38,0.37
					c0.2,0.2,0.03,0.54-0.25,0.49l-0.52-0.08c-0.33-0.05-0.47,0.39-0.18,0.54l0.47,0.24c0.25,0.13,0.19,0.5-0.09,0.54l-0.52,0.08
					c-0.33,0.05-0.33,0.52,0,0.57l0.52,0.08c0.28,0.04,0.34,0.42,0.09,0.54l-0.47,0.24c-0.3,0.15-0.15,0.6,0.18,0.54l0.52-0.08
					c0.28-0.05,0.45,0.29,0.25,0.49l-0.38,0.37c-0.23,0.23,0.04,0.61,0.34,0.46l0.47-0.24c0.25-0.13,0.52,0.14,0.39,0.39l-0.24,0.47
					c-0.15,0.29,0.23,0.57,0.46,0.34l0.37-0.38c0.2-0.2,0.54-0.03,0.49,0.25l-0.08,0.52c-0.05,0.33,0.39,0.47,0.54,0.18l0.24-0.47
					c0.06-0.12,0.17-0.15,0.28-0.14v7.41h1.26v-7.41c0.11-0.01,0.22,0.03,0.28,0.14l0.24,0.47c0.15,0.3,0.6,0.15,0.54-0.18
					l-0.08-0.52c-0.05-0.28,0.29-0.45,0.49-0.25l0.37,0.38c0.23,0.23,0.61-0.04,0.46-0.34l-0.24-0.47
					c-0.13-0.25,0.14-0.52,0.39-0.39l0.47,0.24c0.29,0.15,0.57-0.23,0.34-0.46l-0.38-0.37c-0.2-0.2-0.03-0.54,0.25-0.49l0.52,0.08
					c0.33,0.05,0.47-0.39,0.18-0.54l-0.47-0.24c-0.25-0.13-0.19-0.5,0.09-0.54L225.82,274.51z"/>
				<path fill="#01904B" d="M239.98,274.51c0.33-0.05,0.33-0.52,0-0.57l-0.52-0.08c-0.28-0.04-0.34-0.42-0.09-0.54l0.47-0.24
					c0.3-0.15,0.15-0.6-0.18-0.54l-0.52,0.08c-0.28,0.05-0.45-0.29-0.25-0.49l0.38-0.37c0.23-0.23-0.04-0.61-0.34-0.46l-0.47,0.24
					c-0.25,0.13-0.52-0.14-0.39-0.39l0.24-0.47c0.15-0.29-0.23-0.57-0.46-0.34l-0.37,0.38c-0.2,0.2-0.54,0.03-0.49-0.25l0.08-0.52
					c0.05-0.33-0.39-0.47-0.54-0.18l-0.24,0.47c-0.13,0.25-0.5,0.19-0.54-0.09l-0.08-0.52c-0.05-0.33-0.52-0.33-0.57,0l-0.08,0.52
					c-0.04,0.28-0.42,0.34-0.54,0.09l-0.24-0.47c-0.15-0.3-0.6-0.15-0.54,0.18l0.08,0.52c0.05,0.28-0.29,0.45-0.49,0.25l-0.37-0.38
					c-0.23-0.23-0.61,0.04-0.46,0.34l0.24,0.47c0.13,0.25-0.14,0.52-0.39,0.39l-0.47-0.24c-0.29-0.15-0.57,0.23-0.34,0.46l0.38,0.37
					c0.2,0.2,0.03,0.54-0.25,0.49l-0.52-0.08c-0.33-0.05-0.47,0.39-0.18,0.54l0.47,0.24c0.25,0.13,0.19,0.5-0.09,0.54l-0.52,0.08
					c-0.33,0.05-0.33,0.52,0,0.57l0.52,0.08c0.28,0.04,0.34,0.42,0.09,0.54l-0.47,0.24c-0.3,0.15-0.15,0.6,0.18,0.54l0.52-0.08
					c0.28-0.05,0.45,0.29,0.25,0.49l-0.38,0.37c-0.23,0.23,0.04,0.61,0.34,0.46l0.47-0.24c0.25-0.13,0.52,0.14,0.39,0.39l-0.24,0.47
					c-0.15,0.29,0.23,0.57,0.46,0.34l0.37-0.38c0.2-0.2,0.54-0.03,0.49,0.25l-0.08,0.52c-0.05,0.33,0.39,0.47,0.54,0.18l0.24-0.47
					c0.06-0.12,0.17-0.15,0.28-0.14v7.41h1.26v-7.41c0.11-0.01,0.22,0.03,0.28,0.14l0.24,0.47c0.15,0.3,0.6,0.15,0.54-0.18
					l-0.08-0.52c-0.04-0.28,0.29-0.45,0.49-0.25l0.37,0.38c0.23,0.23,0.61-0.04,0.46-0.34l-0.24-0.47
					c-0.13-0.25,0.14-0.52,0.39-0.39l0.47,0.24c0.29,0.15,0.57-0.23,0.34-0.46l-0.38-0.37c-0.2-0.2-0.03-0.54,0.25-0.49l0.52,0.08
					c0.33,0.05,0.47-0.39,0.18-0.54l-0.47-0.24c-0.25-0.13-0.19-0.5,0.09-0.54L239.98,274.51z"/>
				<path fill="#01904B" d="M254.09,274.51c0.33-0.05,0.33-0.52,0-0.57l-0.52-0.08c-0.28-0.04-0.34-0.42-0.09-0.54l0.47-0.24
					c0.3-0.15,0.15-0.6-0.18-0.54l-0.52,0.08c-0.28,0.05-0.45-0.29-0.25-0.49l0.38-0.37c0.23-0.23-0.04-0.61-0.34-0.46l-0.47,0.24
					c-0.25,0.13-0.52-0.14-0.39-0.39l0.24-0.47c0.15-0.29-0.23-0.57-0.46-0.34l-0.37,0.38c-0.2,0.2-0.54,0.03-0.49-0.25l0.08-0.52
					c0.05-0.33-0.39-0.47-0.54-0.18l-0.24,0.47c-0.13,0.25-0.5,0.19-0.54-0.09l-0.08-0.52c-0.05-0.33-0.52-0.33-0.57,0l-0.08,0.52
					c-0.04,0.28-0.42,0.34-0.54,0.09l-0.24-0.47c-0.15-0.3-0.6-0.15-0.54,0.18l0.08,0.52c0.05,0.28-0.29,0.45-0.49,0.25l-0.37-0.38
					c-0.23-0.23-0.61,0.04-0.46,0.34l0.24,0.47c0.13,0.25-0.14,0.52-0.39,0.39l-0.47-0.24c-0.29-0.15-0.57,0.23-0.34,0.46l0.38,0.37
					c0.2,0.2,0.03,0.54-0.25,0.49l-0.52-0.08c-0.33-0.05-0.47,0.39-0.18,0.54l0.47,0.24c0.25,0.13,0.19,0.5-0.09,0.54l-0.52,0.08
					c-0.33,0.05-0.33,0.52,0,0.57l0.52,0.08c0.28,0.04,0.34,0.42,0.09,0.54l-0.47,0.24c-0.3,0.15-0.15,0.6,0.18,0.54l0.52-0.08
					c0.28-0.05,0.45,0.29,0.25,0.49l-0.38,0.37c-0.23,0.23,0.04,0.61,0.34,0.46l0.47-0.24c0.25-0.13,0.52,0.14,0.39,0.39l-0.24,0.47
					c-0.15,0.29,0.23,0.57,0.46,0.34l0.37-0.38c0.2-0.2,0.54-0.03,0.49,0.25l-0.08,0.52c-0.05,0.33,0.39,0.47,0.54,0.18l0.24-0.47
					c0.06-0.12,0.17-0.15,0.28-0.14v7.41h1.26v-7.41c0.11-0.01,0.22,0.03,0.28,0.14l0.24,0.47c0.15,0.3,0.6,0.15,0.54-0.18
					l-0.08-0.52c-0.05-0.28,0.29-0.45,0.49-0.25l0.37,0.38c0.23,0.23,0.61-0.04,0.46-0.34l-0.24-0.47
					c-0.13-0.25,0.14-0.52,0.39-0.39l0.47,0.24c0.29,0.15,0.57-0.23,0.34-0.46l-0.38-0.37c-0.2-0.2-0.03-0.54,0.25-0.49l0.52,0.08
					c0.33,0.05,0.47-0.39,0.18-0.54l-0.47-0.24c-0.25-0.13-0.19-0.5,0.09-0.54L254.09,274.51z"/>
			</g>
		</g>
		<g>
			<path fill="#FFFFFF" d="M144.38,179.57h-5.13c-0.79,0-1.42-0.64-1.42-1.42v-20.05c0-0.79,0.64-1.42,1.42-1.42h5.13
				c0.79,0,1.42,0.64,1.42,1.42v20.05C145.81,178.93,145.17,179.57,144.38,179.57z"/>
			<g>
				<path fill="#DF7D05" d="M148.13,186.26h-1.12v-25.71c0-0.35-0.28-0.63-0.63-0.63h-0.57v-1.12h0.57c0.96,0,1.75,0.78,1.75,1.75
					V186.26z"/>
			</g>
			<path fill="#CAEDF6" d="M145.81,177.99v-19.74c0-0.87-0.71-1.58-1.58-1.58h-2.41v22.89h2.41
				C145.1,179.57,145.81,178.86,145.81,177.99z"/>
			<g>
				<path fill="#163173" d="M135.17,182.14h-12.94c-0.31,0-0.56-0.25-0.56-0.56s0.25-0.56,0.56-0.56h12.94
					c0.13,0,0.23-0.1,0.23-0.23v-3.93c0-0.75,0.61-1.35,1.35-1.35h9.72c0.31,0,0.56,0.25,0.56,0.56s-0.25,0.56-0.56,0.56h-9.72
					c-0.13,0-0.23,0.11-0.23,0.23v3.93C136.52,181.53,135.92,182.14,135.17,182.14z"/>
			</g>
			<g>
				<rect x="138.5" y="176.58" fill="#163173" width="1.12" height="9.68"/>
			</g>
			<g>
				<rect x="141.26" y="176.58" fill="#163173" width="1.12" height="9.68"/>
			</g>
			<g>
				<rect x="143.95" y="176.58" fill="#163173" width="1.12" height="9.68"/>
			</g>
			<rect x="144.42" y="160.15" fill="#163173" width="1.39" height="0.56"/>
			<rect x="144.42" y="161.93" fill="#163173" width="1.39" height="0.56"/>
			<rect x="144.42" y="163.71" fill="#163173" width="1.39" height="0.56"/>
			<rect x="144.42" y="165.49" fill="#163173" width="1.39" height="0.56"/>
			<rect x="144.42" y="167.27" fill="#163173" width="1.39" height="0.56"/>
			<rect x="144.42" y="169.05" fill="#163173" width="1.39" height="0.56"/>
			<rect x="144.42" y="170.83" fill="#163173" width="1.39" height="0.56"/>
			<rect x="144.42" y="172.61" fill="#163173" width="1.39" height="0.56"/>
			<rect x="144.42" y="174.39" fill="#163173" width="1.39" height="0.56"/>
		</g>
		<g>
			<polygon fill="#DF7D05" points="120.82,186.26 94.94,186.26 94.94,168.78 100.31,161.15 107.88,156.67 115.45,161.15 
				120.82,168.78 			"/>
			<path fill="#FFFFFF" d="M131.27,179.57h-4.87c-0.86,0-1.56-0.7-1.56-1.56v-19.78c0-0.86,0.7-1.56,1.56-1.56h4.87
				c0.86,0,1.56,0.7,1.56,1.56v19.78C132.82,178.87,132.13,179.57,131.27,179.57z"/>
			<g>
				<polygon fill="#683101" points="122.22,170.84 115.45,161.15 107.87,156.65 100.3,161.15 93.69,170.91 91.76,169.78 
					98.64,159.52 107.93,154.09 117.09,159.49 124.13,169.52 				"/>
			</g>
			<path fill="#A95A34" d="M108.03,175.61c-1.95,0-3.68,0.66-4.77,1.68v8.97h9.55v-8.97C111.71,176.27,109.98,175.61,108.03,175.61z
				"/>
			<polygon opacity="0.5" fill="#A95A34" points="120.82,168.78 115.45,161.15 107.88,156.67 108.03,156.57 108.03,186.16 
				120.82,186.26 			"/>
			<path opacity="0.2" fill="#683101" d="M112.8,177.29c-1.09-1.02-2.82-1.68-4.77-1.68v10.65h4.77V177.29z"/>
			<rect x="105.4" y="160.62" fill="#163173" width="4.96" height="2.98"/>
			<rect x="97.7" y="179.07" fill="#F7C219" width="2.57" height="3.72"/>
			<rect x="97.87" y="168.04" fill="#163173" width="2.57" height="3.72"/>
			<rect x="102.31" y="168.04" fill="#F7C219" width="2.57" height="3.72"/>
			<rect x="106.74" y="168.04" fill="#F7C219" width="2.57" height="3.72"/>
			<rect x="111.17" y="168.04" fill="#163173" width="2.57" height="3.72"/>
			<rect x="115.6" y="168.04" fill="#163173" width="2.57" height="3.72"/>
			<rect x="115.43" y="179.07" fill="#F7C219" width="2.57" height="3.72"/>
			<g>
				<path fill="#DF7D05" d="M135.15,186.26h-1.12v-25.71c0-0.35-0.28-0.63-0.63-0.63h-0.57v-1.12h0.57c0.96,0,1.75,0.78,1.75,1.75
					V186.26z"/>
			</g>
			<path fill="#CAEDF6" d="M132.82,177.99v-19.74c0-0.87-0.71-1.58-1.58-1.58h-2.41v22.89h2.41
				C132.12,179.57,132.82,178.86,132.82,177.99z"/>
			<g>
				<path fill="#163173" d="M122.19,182.14h-1.37c-0.31,0-0.56-0.25-0.56-0.56s0.25-0.56,0.56-0.56h1.37c0.13,0,0.23-0.1,0.23-0.23
					v-3.93c0-0.75,0.61-1.35,1.35-1.35h9.72c0.31,0,0.56,0.25,0.56,0.56s-0.25,0.56-0.56,0.56h-9.72c-0.13,0-0.23,0.11-0.23,0.23
					v3.93C123.54,181.53,122.93,182.14,122.19,182.14z"/>
			</g>
			<g>
				<rect x="125.51" y="176.58" fill="#163173" width="1.12" height="9.68"/>
			</g>
			<g>
				<rect x="128.27" y="176.58" fill="#163173" width="1.12" height="9.68"/>
			</g>
			<g>
				<rect x="106.74" y="181.42" fill="#163173" width="2.91" height="1.12"/>
			</g>
			<g>
				<rect x="130.97" y="176.58" fill="#163173" width="1.12" height="9.68"/>
			</g>
			<rect x="131.43" y="160.15" fill="#163173" width="1.39" height="0.56"/>
			<rect x="131.43" y="161.93" fill="#163173" width="1.39" height="0.56"/>
			<rect x="131.43" y="163.71" fill="#163173" width="1.39" height="0.56"/>
			<rect x="131.43" y="165.49" fill="#163173" width="1.39" height="0.56"/>
			<rect x="131.43" y="167.27" fill="#163173" width="1.39" height="0.56"/>
			<rect x="131.43" y="169.05" fill="#163173" width="1.39" height="0.56"/>
			<rect x="131.43" y="170.83" fill="#163173" width="1.39" height="0.56"/>
			<rect x="131.43" y="172.61" fill="#163173" width="1.39" height="0.56"/>
			<rect x="109.31" y="181.14" fill="#163173" width="1.39" height="0.56"/>
			<rect x="106.04" y="181.7" fill="#163173" width="1.39" height="0.56"/>
			<rect x="109.31" y="182.26" fill="#163173" width="1.39" height="0.56"/>
			<rect x="131.43" y="174.39" fill="#163173" width="1.39" height="0.56"/>
		</g>
		<g>
			<path fill="#ACE8EA" d="M285.78,83.28v-2.46c0-5.13-4.16-9.29-9.29-9.29h0c-5.13,0-9.29,4.16-9.29,9.29v0.3h-6.4
				c-3.46,0-6.27,2.81-6.27,6.27l0,0h-3.54c-3.36,0-6.09,2.73-6.09,6.09l0,0c0,3.36,2.73,6.09,6.09,6.09h34.8
				c4.28,0,7.75-3.47,7.75-7.75v-0.78C293.53,86.75,290.06,83.28,285.78,83.28L285.78,83.28z"/>
			<path opacity="0.5" fill="#FFFFFF" d="M293.53,91.82v-0.78c0-4.28-3.47-7.75-7.75-7.75v-2.46c0-5.13-4.16-9.29-9.29-9.29h0
				c-0.46,0-0.91,0.04-1.35,0.11l0,27.93h10.64C290.06,99.57,293.53,96.1,293.53,91.82z"/>
		</g>
		<g>
			<path fill="#ACE8EA" d="M328.26,100.05v-1.77c0-3.69-2.99-6.68-6.68-6.68l0,0c-3.69,0-6.68,2.99-6.68,6.68v0.22l-4.6,0
				c-2.49,0-4.5,2.02-4.5,4.5l0,0h-2.55c-2.42,0-4.38,1.96-4.38,4.38l0,0c0,2.42,1.96,4.38,4.38,4.38h25.01
				c3.08,0,5.57-2.49,5.57-5.57l0-0.56C333.83,102.55,331.34,100.05,328.26,100.05L328.26,100.05z"/>
			<path opacity="0.5" fill="#FFFFFF" d="M333.83,106.19l0-0.56c0-3.08-2.49-5.57-5.57-5.57v-1.77c0-3.69-2.99-6.68-6.68-6.68l0,0
				c-0.33,0-0.65,0.03-0.97,0.08l0,20.08h7.65C331.34,111.76,333.83,109.27,333.83,106.19z"/>
		</g>
		<g>
			<path fill="#ACE8EA" d="M365.54,113.64v-1.77c0-3.69-2.99-6.68-6.68-6.68h0c-3.69,0-6.68,2.99-6.68,6.68v0.22h-4.6
				c-2.49,0-4.5,2.02-4.5,4.5l0,0h-2.55c-2.42,0-4.38,1.96-4.38,4.38l0,0c0,2.42,1.96,4.38,4.38,4.38h25.01
				c3.08,0,5.57-2.49,5.57-5.57l0-0.56C371.11,116.14,368.61,113.64,365.54,113.64L365.54,113.64z"/>
			<path opacity="0.5" fill="#FFFFFF" d="M371.11,119.78l0-0.56c0-3.08-2.49-5.57-5.57-5.57v-1.77c0-3.69-2.99-6.68-6.68-6.68h0
				c-0.33,0-0.65,0.03-0.97,0.08v20.08h7.65C368.61,125.35,371.11,122.86,371.11,119.78z"/>
		</g>
		<g>
			<circle fill="#58AC00" cx="346.11" cy="298.81" r="49.6"/>
			<g opacity="0.5">
				<path fill="#9FE054" d="M346.7,345.29l-0.09-7c0.62-0.01,1.23-0.03,1.84-0.07l0.41,6.99
					C348.14,345.25,347.42,345.28,346.7,345.29z M343.46,345.22c-0.72-0.04-1.44-0.1-2.16-0.17l0.72-6.96
					c0.61,0.06,1.21,0.11,1.83,0.15L343.46,345.22z M352.09,344.91l-0.9-6.94c0.61-0.08,1.22-0.17,1.82-0.28l1.22,6.89
					C353.52,344.71,352.8,344.82,352.09,344.91z M338.1,344.6c-0.71-0.12-1.42-0.26-2.13-0.42l1.52-6.83
					c0.59,0.13,1.19,0.25,1.8,0.36L338.1,344.6z M357.4,343.91l-1.7-6.79c0.6-0.15,1.19-0.31,1.77-0.49l2.01,6.71
					C358.79,343.55,358.1,343.74,357.4,343.91z M332.84,343.37c-0.69-0.21-1.38-0.43-2.06-0.67l2.31-6.61
					c0.58,0.2,1.16,0.39,1.74,0.56L332.84,343.37z M362.55,342.3l-2.47-6.55c0.57-0.22,1.13-0.44,1.69-0.69l2.78,6.42
					C363.9,341.77,363.23,342.04,362.55,342.3z M327.75,341.52c-0.66-0.29-1.32-0.59-1.97-0.9l3.07-6.29
					c0.55,0.27,1.11,0.52,1.67,0.77L327.75,341.52z M367.48,340.1l-3.22-6.21c0.54-0.28,1.08-0.58,1.61-0.88l3.51,6.06
					C368.75,339.42,368.12,339.77,367.48,340.1z M322.91,339.1c-0.62-0.36-1.24-0.73-1.85-1.12l3.77-5.9
					c0.52,0.33,1.04,0.65,1.57,0.96L322.91,339.1z M372.12,337.34l-3.93-5.79c0.51-0.34,1.01-0.7,1.5-1.07l4.18,5.61
					C373.3,336.52,372.72,336.93,372.12,337.34z M318.4,336.13c-0.58-0.43-1.14-0.87-1.7-1.33l4.42-5.43
					c0.48,0.39,0.96,0.77,1.46,1.14L318.4,336.13z M376.41,334.06l-4.57-5.3c0.46-0.4,0.92-0.81,1.37-1.23l4.8,5.09
					C377.49,333.11,376.95,333.59,376.41,334.06z M314.25,332.66c-0.52-0.49-1.04-1-1.54-1.51l5.03-4.87
					c0.43,0.44,0.86,0.87,1.31,1.29L314.25,332.66z M380.29,330.31l-5.15-4.75c0.42-0.45,0.82-0.91,1.21-1.38l5.36,4.5
					C381.25,329.24,380.78,329.78,380.29,330.31z M310.54,328.74c-0.46-0.55-0.91-1.11-1.35-1.68l5.55-4.26
					c0.37,0.49,0.76,0.96,1.15,1.43L310.54,328.74z M383.71,326.13l-5.65-4.13c0.36-0.49,0.71-1,1.04-1.51l5.85,3.85
					C384.55,324.96,384.14,325.55,383.71,326.13z M307.31,324.42c-0.4-0.6-0.78-1.21-1.15-1.83l6.01-3.58
					c0.31,0.53,0.64,1.04,0.98,1.55L307.31,324.42z M386.63,321.58l-6.1-3.44c0.3-0.54,0.59-1.08,0.87-1.62l6.25,3.15
					C387.33,320.32,386.99,320.96,386.63,321.58z M304.6,319.75c-0.33-0.64-0.63-1.29-0.93-1.95l6.39-2.86
					c0.25,0.56,0.51,1.11,0.79,1.65L304.6,319.75z M389.01,316.72l-6.46-2.71c0.24-0.56,0.46-1.13,0.67-1.71l6.58,2.39
					C389.55,315.38,389.29,316.06,389.01,316.72z M302.45,314.8c-0.25-0.67-0.48-1.36-0.7-2.05l6.68-2.09
					c0.18,0.59,0.38,1.16,0.59,1.74L302.45,314.8z M390.8,311.62l-6.73-1.93c0.17-0.59,0.32-1.18,0.46-1.77l6.81,1.61
					C391.18,310.23,391,310.93,390.8,311.62z M300.89,309.62c-0.17-0.7-0.32-1.41-0.45-2.12l6.88-1.3c0.11,0.6,0.24,1.2,0.38,1.79
					L300.89,309.62z M391.98,306.35l-6.91-1.13c0.1-0.6,0.18-1.21,0.25-1.82l6.95,0.81C392.19,304.92,392.09,305.64,391.98,306.35z
					 M299.95,304.3c-0.08-0.71-0.15-1.43-0.2-2.15l6.98-0.5c0.04,0.62,0.1,1.23,0.17,1.83L299.95,304.3z M392.54,300.97l-6.99-0.32
					c0.03-0.61,0.04-1.22,0.04-1.84l0-0.19h7l0,0.13C392.59,299.54,392.57,300.26,392.54,300.97z M299.63,298.91v-0.09
					c0-0.69,0.01-1.38,0.05-2.06l6.99,0.31c-0.03,0.58-0.04,1.16-0.04,1.75L299.63,298.91z M385.48,295.89
					c-0.04-0.61-0.1-1.22-0.18-1.83l6.95-0.83c0.09,0.71,0.16,1.43,0.21,2.15L385.48,295.89z M306.88,294.31l-6.96-0.79
					c0.08-0.72,0.18-1.43,0.29-2.14l6.91,1.11C307.04,293.1,306.95,293.7,306.88,294.31z M384.88,291.34
					c-0.12-0.6-0.25-1.2-0.39-1.79l6.81-1.64c0.17,0.7,0.32,1.4,0.46,2.11L384.88,291.34z M307.66,289.79l-6.82-1.59
					c0.17-0.7,0.34-1.4,0.54-2.09l6.74,1.9C307.96,288.6,307.8,289.2,307.66,289.79z M383.76,286.9c-0.19-0.59-0.38-1.17-0.6-1.74
					l6.57-2.43c0.25,0.67,0.48,1.36,0.7,2.04L383.76,286.9z M308.97,285.4l-6.58-2.38c0.25-0.68,0.51-1.36,0.79-2.02l6.46,2.69
					C309.4,284.25,309.17,284.82,308.97,285.4z M382.12,282.61c-0.25-0.56-0.52-1.11-0.79-1.65l6.24-3.17
					c0.33,0.64,0.64,1.29,0.93,1.95L382.12,282.61z M310.78,281.18l-6.26-3.13c0.32-0.65,0.66-1.29,1.02-1.92l6.1,3.43
					C311.34,280.09,311.05,280.63,310.78,281.18z M380,278.55c-0.31-0.52-0.64-1.04-0.98-1.55l5.83-3.88
					c0.4,0.6,0.79,1.21,1.16,1.83L380,278.55z M313.07,277.2l-5.85-3.84c0.4-0.6,0.81-1.2,1.23-1.78l5.67,4.11
					C313.75,276.18,313.4,276.68,313.07,277.2z M377.42,274.76c-0.38-0.49-0.76-0.96-1.16-1.43l5.35-4.52
					c0.46,0.55,0.91,1.11,1.35,1.68L377.42,274.76z M315.8,273.51l-5.37-4.49c0.46-0.55,0.94-1.1,1.43-1.63l5.16,4.73
					C316.6,272.58,316.2,273.04,315.8,273.51z M374.41,271.29c-0.43-0.44-0.87-0.87-1.31-1.29l4.79-5.11c0.52,0.49,1.04,1,1.54,1.51
					L374.41,271.29z M318.95,270.16l-4.81-5.08c0.52-0.49,1.06-0.98,1.6-1.45l4.58,5.29C319.85,269.33,319.39,269.74,318.95,270.16z
					 M371.03,268.19c-0.48-0.39-0.96-0.77-1.46-1.13l4.17-5.62c0.58,0.43,1.15,0.87,1.7,1.32L371.03,268.19z M322.46,267.2l-4.2-5.6
					c0.58-0.43,1.16-0.85,1.76-1.26l3.94,5.79C323.44,266.48,322.95,266.83,322.46,267.2z M367.31,265.5
					c-0.52-0.33-1.04-0.65-1.57-0.95l3.48-6.07c0.63,0.36,1.24,0.73,1.85,1.12L367.31,265.5z M326.28,264.67l-3.52-6.05
					c0.62-0.36,1.25-0.71,1.89-1.04l3.24,6.21C327.34,264.07,326.81,264.36,326.28,264.67z M363.29,263.26
					c-0.55-0.27-1.11-0.52-1.67-0.76l2.75-6.44c0.67,0.29,1.33,0.59,1.98,0.9L363.29,263.26z M330.37,262.6l-2.79-6.42
					c0.66-0.29,1.32-0.56,1.99-0.81l2.5,6.54C331.49,262.12,330.92,262.36,330.37,262.6z M359.05,261.51
					c-0.58-0.2-1.16-0.39-1.75-0.56l1.98-6.71c0.69,0.21,1.38,0.42,2.06,0.66L359.05,261.51z M334.67,261.02l-2.03-6.7
					c0.69-0.21,1.38-0.4,2.08-0.58l1.72,6.79C335.84,260.68,335.25,260.84,334.67,261.02z M354.64,260.26
					c-0.6-0.13-1.2-0.25-1.8-0.35l1.19-6.9c0.71,0.12,1.42,0.26,2.12,0.42L354.64,260.26z M339.12,259.95l-1.23-6.89
					c0.7-0.13,1.41-0.23,2.13-0.33l0.92,6.94C340.33,259.75,339.73,259.84,339.12,259.95z M350.11,259.54
					c-0.61-0.06-1.22-0.11-1.83-0.14l0.38-6.99c0.72,0.04,1.44,0.09,2.16,0.17L350.11,259.54z M343.68,259.41l-0.42-6.99
					c0.71-0.04,1.43-0.07,2.16-0.08l0.1,7C344.9,259.35,344.29,259.37,343.68,259.41z"/>
			</g>
			<g>
				<rect x="293.6" y="285.97" fill="#FCD74F" width="50.39" height="19.4"/>
				<polygon fill="#F7C219" points="343.99,285.97 293.6,285.97 323.83,278.99 				"/>
				<rect x="318.79" y="285.97" opacity="0.3" fill="#F7C219" width="25.2" height="19.4"/>
				<circle fill="#F7C219" cx="338.64" cy="289.81" r="1.26"/>
				<circle fill="#F7C219" cx="329.92" cy="302.46" r="1.26"/>
				<circle fill="#F7C219" cx="310.98" cy="289.81" r="1.26"/>
				<circle fill="#F7C219" cx="312.24" cy="302.68" r="1.26"/>
				<circle fill="#F7C219" cx="299.81" cy="302.46" r="1.26"/>
				<circle fill="#F7C219" cx="331.18" cy="294.15" r="2.38"/>
				<circle fill="#F7C219" cx="322.35" cy="291.07" r="2.38"/>
				<circle fill="#F7C219" cx="308.25" cy="298.05" r="2.38"/>
				<circle fill="#F7C219" cx="338.13" cy="301.42" r="2.38"/>
				<circle fill="#F7C219" cx="301.45" cy="292.47" r="3.73"/>
				<circle fill="#F7C219" cx="320.41" cy="300.26" r="3.73"/>
				<polygon fill="#A95A34" points="283.01,305.46 291.07,312.51 345.5,312.51 353.56,305.46 				"/>
				<rect x="291.08" y="312.51" fill="#683101" width="54.42" height="2.52"/>
				<polygon opacity="0.2" fill="#683101" points="318.79,305.46 318.79,312.51 345.5,312.51 353.56,305.46 				"/>
			</g>
			<g>
				<rect x="328.44" y="264.38" fill="#FFFFFF" width="29.37" height="61.17"/>
				<polygon fill="#0063B0" points="357.82,264.38 328.44,264.38 333.99,253.53 363.37,253.53 				"/>
				<rect x="333.99" y="248.16" fill="#FFFFFF" width="29.37" height="5.36"/>
				<polygon fill="#163173" points="368.8,317.38 357.82,325.56 357.82,264.38 363.37,253.53 368.8,259.96 				"/>
				<path fill="#F7C219" d="M328.44,300.29h2.17c1.51,0,2.98,0.53,4.19,1.5l0.09,0.07c1.05,0.85,2.48,0.85,3.53,0l0,0
					c1.27-1.02,2.81-1.57,4.39-1.57l0,0c1.42,0,2.81,0.44,4,1.28l0.69,0.49c1.05,0.74,2.41,0.68,3.41-0.15l0.06-0.05
					c1.23-1.02,2.73-1.57,4.27-1.57h2.55v25.27h-29.37V300.29z"/>
				<path fill="#0063B0" d="M328.44,304.58h2.17c1.51,0,2.98,0.53,4.19,1.5l0.09,0.07c1.05,0.84,2.48,0.84,3.53,0l0,0
					c1.27-1.02,2.81-1.57,4.39-1.57l0,0c1.42,0,2.81,0.44,4,1.28l0.69,0.49c1.05,0.74,2.41,0.68,3.41-0.15l0.06-0.05
					c1.23-1.02,2.73-1.57,4.27-1.57h2.55v20.98h-29.37V304.58z"/>
				<g>
					<path fill="#CAEDF6" d="M342.72,307.2c-1.47,0-2.67-1.18-2.67-2.62c0-1.45,1.2-2.62,2.67-2.62c1.47,0,2.67,1.18,2.67,2.62
						C345.39,306.02,344.19,307.2,342.72,307.2z M342.72,303.47c-0.62,0-1.13,0.5-1.13,1.11c0,0.61,0.51,1.11,1.13,1.11
						c0.62,0,1.13-0.5,1.13-1.11C343.85,303.97,343.34,303.47,342.72,303.47z"/>
				</g>
				<g>
					<path fill="#CAEDF6" d="M348.28,310.84c-1.03,0-1.87-0.82-1.87-1.84c0-1.01,0.84-1.84,1.87-1.84c1.03,0,1.87,0.82,1.87,1.84
						C350.15,310.02,349.31,310.84,348.28,310.84z M348.28,308.22c-0.44,0-0.79,0.35-0.79,0.78c0,0.43,0.36,0.78,0.79,0.78
						c0.44,0,0.79-0.35,0.79-0.78C349.07,308.57,348.71,308.22,348.28,308.22z"/>
				</g>
				<g>
					<path fill="#CAEDF6" d="M341.25,314.39c-1.03,0-1.87-0.82-1.87-1.84c0-1.01,0.84-1.84,1.87-1.84c1.03,0,1.87,0.82,1.87,1.84
						C343.12,313.57,342.28,314.39,341.25,314.39z M341.25,311.78c-0.44,0-0.79,0.35-0.79,0.78c0,0.43,0.36,0.78,0.79,0.78
						c0.44,0,0.79-0.35,0.79-0.78C342.04,312.13,341.68,311.78,341.25,311.78z"/>
				</g>
				<g>
					<path fill="#CAEDF6" d="M335.69,317.8c-1.47,0-2.67-1.18-2.67-2.62c0-1.45,1.2-2.62,2.67-2.62c1.47,0,2.67,1.18,2.67,2.62
						C338.36,316.62,337.16,317.8,335.69,317.8z M335.69,314.07c-0.62,0-1.13,0.5-1.13,1.11c0,0.61,0.51,1.11,1.13,1.11
						c0.62,0,1.13-0.5,1.13-1.11C336.82,314.57,336.31,314.07,335.69,314.07z"/>
				</g>
				<g>
					<path fill="#CAEDF6" d="M351.18,317.93c-1.47,0-2.67-1.18-2.67-2.62c0-1.45,1.2-2.62,2.67-2.62c1.47,0,2.67,1.18,2.67,2.62
						C353.85,316.76,352.65,317.93,351.18,317.93z M351.18,314.2c-0.62,0-1.13,0.5-1.13,1.11c0,0.61,0.51,1.11,1.13,1.11
						c0.62,0,1.13-0.5,1.13-1.11C352.31,314.7,351.8,314.2,351.18,314.2z"/>
				</g>
				<path fill="#F7C219" d="M348.42,273.49l0.01,0.03c0.18,0.58-0.06,1.2-0.57,1.52c-0.68,0.42-1.59,0.98-2.07,1.29
					c-0.21,0.13-0.34,0.37-0.33,0.61l0,0.02c0.02,0.42,0.39,0.73,0.82,0.68c0.84-0.1,2.18-0.26,3.05-0.37
					c0.51-0.06,0.99,0.23,1.16,0.7c0.01,0.02,0.01,0.04,0.02,0.05c0.23,0.61,0,1.3-0.56,1.66l-0.02,0.02
					c-0.43,0.28-0.98,0.32-1.46,0.11c-0.83-0.38-2.12-0.96-2.74-1.24c-0.2-0.09-0.45-0.03-0.57,0.16l-0.01,0.01
					c-0.16,0.23-0.08,0.55,0.17,0.68c0.31,0.16,0.73,0.38,1.09,0.56c0.38,0.2,0.49,0.68,0.22,1.02l-0.01,0.02
					c-0.28,0.35-0.8,0.36-1.09,0.03c-0.31-0.35-0.66-0.75-0.86-0.97c-0.08-0.1-0.23-0.12-0.34-0.07l-0.01,0
					c-0.15,0.08-0.21,0.26-0.12,0.41c0.16,0.26,0.42,0.68,0.66,1.05c0.27,0.44,0.08,1.01-0.4,1.21l-0.02,0.01
					c-0.52,0.21-1.11-0.1-1.2-0.64c-0.08-0.45-0.17-0.93-0.22-1.22c-0.03-0.15-0.15-0.26-0.31-0.27l-0.01,0
					c-0.16-0.01-0.3,0.08-0.35,0.23c-0.16,0.45-0.49,1.43-0.71,2.04c-0.12,0.34-0.42,0.59-0.78,0.65l-0.05,0.01
					c-0.57,0.1-1.11-0.28-1.2-0.84l0-0.02c-0.07-0.41,0.03-0.82,0.27-1.16l0.6-0.82c0.21-0.29,0.13-0.69-0.17-0.88l0,0
					c-0.17-0.11-0.37-0.13-0.56-0.07l-2.94,1.01c-0.49,0.17-1.04,0.04-1.4-0.34l-0.02-0.02c-0.61-0.63-0.71-1.59-0.26-2.33
					l0.02-0.03c0.24-0.4,0.69-0.64,1.16-0.63l3.07,0.07c0.15,0,0.29-0.07,0.37-0.2l0,0c0.13-0.21,0.04-0.5-0.19-0.6l-1.68-0.74
					c-0.4-0.18-0.67-0.55-0.72-0.98l0-0.03c-0.06-0.65,0.43-1.23,1.1-1.28l0.03,0c0.4-0.03,0.79,0.14,1.04,0.44l1.12,1.27
					c0.19,0.21,0.49,0.28,0.75,0.17l0,0c0.29-0.13,0.45-0.45,0.36-0.76l-0.63-2.18c-0.3-0.93,0.34-1.9,1.33-2.02l0.05-0.01
					c1.07-0.13,1.97,0.75,1.85,1.79c-0.13,1.11-0.28,2.37-0.35,2.94c-0.02,0.18,0.1,0.35,0.28,0.39l0,0
					c0.17,0.04,0.34-0.04,0.41-0.19l1.12-2.17c0.23-0.45,0.69-0.74,1.2-0.76c0.07,0,0.14,0,0.21-0.01
					C347.67,272.49,348.24,272.89,348.42,273.49z"/>
				<g>
					<path fill="#163173" d="M334.92,285.63l1.39,4.27h0.03l1.41-4.27h1.9v6.1h-1.45v-1.51l0.14-2.79l-0.03,0l-1.5,4.3h-0.97
						l-1.48-4.26l-0.03,0l0.14,2.75v1.51h-1.45v-6.1H334.92z"/>
					<path fill="#163173" d="M342.15,291.73h-1.44v-6.1h1.44V291.73z"/>
					<path fill="#163173" d="M344.67,290.64h2.67v1.09h-4.12v-6.1h1.45V290.64z"/>
					<path fill="#163173" d="M350.06,289.28h-0.67v2.45h-1.45v-6.1h1.45v2.39h0.49l1.36-2.39h1.79l-1.92,2.76l2.09,3.34h-1.76
						L350.06,289.28z"/>
				</g>
			</g>
			<g>
				<polygon fill="#FFFFFF" points="393.82,335.89 369.76,335.89 364.17,300.54 399.41,300.54 				"/>
				<polygon fill="#CAEDF6" points="399.41,300.54 381.79,300.54 381.79,335.89 393.82,335.89 				"/>
				<polygon fill="#F7C219" points="365.15,307.17 368.65,328.84 394.94,328.84 398.43,307.17 				"/>
				<rect x="359.72" y="297.46" fill="#163173" width="44.17" height="3.08"/>
				<g>
					<path fill="#163173" d="M373.88,312.56h0.01l0.7-1.53h0.88l-1.19,2.27v1.23h-0.81v-1.27l-1.17-2.23h0.88L373.88,312.56z"/>
					<path fill="#163173" d="M378.56,313.1c0,0.43-0.14,0.79-0.41,1.07c-0.27,0.28-0.63,0.42-1.07,0.42c-0.44,0-0.8-0.14-1.08-0.42
						c-0.28-0.28-0.41-0.63-0.41-1.07v-0.63c0-0.43,0.14-0.79,0.41-1.07c0.28-0.28,0.64-0.42,1.08-0.42c0.44,0,0.8,0.14,1.07,0.42
						c0.28,0.28,0.41,0.64,0.41,1.07V313.1z M377.75,312.47c0-0.25-0.06-0.46-0.18-0.62c-0.12-0.16-0.29-0.24-0.5-0.24
						c-0.22,0-0.39,0.08-0.51,0.24c-0.12,0.16-0.17,0.37-0.17,0.62v0.64c0,0.25,0.06,0.46,0.18,0.62c0.12,0.16,0.29,0.24,0.51,0.24
						c0.21,0,0.38-0.08,0.5-0.24c0.12-0.16,0.18-0.37,0.18-0.62V312.47z"/>
					<path fill="#163173" d="M381.8,314.05c-0.12,0.14-0.29,0.27-0.52,0.37c-0.23,0.11-0.51,0.16-0.85,0.16
						c-0.43,0-0.78-0.13-1.06-0.4c-0.27-0.27-0.4-0.61-0.4-1.04v-0.73c0-0.42,0.13-0.77,0.39-1.03c0.26-0.27,0.6-0.4,1.02-0.4
						c0.45,0,0.79,0.1,1.01,0.31c0.22,0.21,0.35,0.49,0.38,0.85l0,0.01h-0.76c-0.03-0.18-0.09-0.32-0.18-0.42
						c-0.09-0.09-0.23-0.14-0.42-0.14c-0.19,0-0.34,0.07-0.46,0.22c-0.12,0.15-0.17,0.34-0.17,0.58v0.74c0,0.24,0.06,0.44,0.17,0.59
						c0.11,0.15,0.27,0.22,0.48,0.22c0.15,0,0.27-0.01,0.35-0.04c0.08-0.02,0.15-0.06,0.2-0.1v-0.55h-0.55v-0.54h1.37V314.05z"/>
					<path fill="#163173" d="M385.17,311.03v2.29c0,0.4-0.13,0.71-0.4,0.93c-0.27,0.22-0.61,0.33-1.04,0.33
						c-0.44,0-0.78-0.11-1.05-0.33c-0.27-0.22-0.4-0.53-0.4-0.93v-2.29h0.82v2.29c0,0.22,0.06,0.37,0.17,0.48
						c0.11,0.1,0.27,0.16,0.47,0.16c0.2,0,0.36-0.05,0.46-0.15c0.11-0.1,0.16-0.26,0.16-0.48v-2.29H385.17z"/>
					<path fill="#163173" d="M386.52,313.19v1.34h-0.82v-3.5h1.35c0.41,0,0.73,0.09,0.96,0.28c0.24,0.19,0.36,0.44,0.36,0.77
						c0,0.18-0.05,0.34-0.14,0.47c-0.1,0.13-0.24,0.24-0.42,0.32c0.21,0.06,0.37,0.16,0.46,0.3c0.1,0.14,0.14,0.32,0.14,0.53v0.22
						c0,0.09,0.01,0.2,0.04,0.31c0.03,0.12,0.07,0.2,0.14,0.25v0.05h-0.84c-0.07-0.05-0.11-0.14-0.13-0.26
						c-0.02-0.13-0.03-0.24-0.03-0.35v-0.21c0-0.17-0.04-0.29-0.13-0.38c-0.09-0.09-0.22-0.13-0.39-0.13H386.52z M386.52,312.57
						h0.54c0.16,0,0.29-0.04,0.38-0.11c0.09-0.07,0.13-0.18,0.13-0.32c0-0.14-0.04-0.26-0.13-0.35c-0.09-0.09-0.21-0.13-0.38-0.13
						h-0.53V312.57z"/>
					<path fill="#163173" d="M391.28,311.66h-0.92v2.88h-0.82v-2.88h-0.92v-0.63h2.66V311.66z"/>
				</g>
				<path fill="#FFFFFF" d="M382.06,322.93l0.27-0.75c0.49-1.36,0.64-3.88-0.19-5.06l0,0c-0.44-0.51-1.21-0.57-1.73-0.13l0,0
					c-0.58,0.49-0.58,1.39,0,1.88l0,0c0.5,0.43,0.86,1.01,1.03,1.65L382.06,322.93z"/>
				<ellipse fill="#F7C219" cx="381.69" cy="325.05" rx="4.07" ry="1.64"/>
				<ellipse fill="#DF7D05" cx="381.69" cy="325.05" rx="1.9" ry="0.76"/>
				<path fill="#FFFFFF" d="M378.55,323.36l-0.22-0.1c-0.21-0.09-0.35-0.29-0.39-0.51l-0.04-0.29c-0.05-0.34-0.21-0.65-0.46-0.88
					l0,0c-0.27-0.25-0.66-0.31-0.98-0.15l0,0c-0.29,0.14-0.49,0.43-0.51,0.75l-0.04,0.42c-0.04,0.47,0.1,0.94,0.39,1.3l0,0
					c0.34,0.43,0.9,0.62,1.43,0.48l0.32-0.08c0.45-0.12,0.93-0.1,1.38,0.03l0.67,0.2l-0.79-0.69
					C379.07,323.64,378.82,323.48,378.55,323.36z"/>
				<path fill="#FFFFFF" d="M383.2,323.82c0.21-0.46,0.46-0.91,0.72-1.35l0.45-0.74c0.33-0.61,0.92-1.04,1.61-1.15l0,0
					c0.67-0.11,1.36,0.14,1.81,0.65l0,0c0.23,0.27,0.28,0.65,0.11,0.96l0,0c-0.25,0.46-0.77,0.72-1.29,0.63l-0.18-0.03
					c-0.54-0.08-1.09,0-1.58,0.24l0,0c-0.44,0.21-0.84,0.5-1.19,0.85l-0.93,0.94L383.2,323.82z"/>
			</g>
		</g>
	</g>
</g>
</svg>
